<svg width="90" height="91" viewBox="0 0 90 91" fill="none" xmlns="http://www.w3.org/2000/svg">
<path d="M70.0521 44C67.6206 50.8916 8.04997 47.8654 8.16821 44C4.45973 46.5796 8.17883 87.0035 40.0924 84.9224C72.0061 82.8413 72.6492 45.9507 70.0521 44Z" stroke="#A911E5"/>
<path d="M21.161 13.6562C20.1937 8.8125 23.6869 5.26159 28.8997 3C26.213 6.35304 23.0957 7.84375 25.9977 13.1719C28.8997 18.5 30.8344 19.9531 31.8018 24.7969C32.7691 29.6406 30.1462 31.9595 25.0304 34C26.56 31.4756 27.4694 30.0879 27.4487 26.7344C25.2236 20.3065 22.1284 18.5 21.161 13.6562Z" fill="#A911E5"/>
<path d="M34.161 19C33.1937 14 36.6869 10.3345 41.8997 8C39.213 11.4612 36.0957 13 38.9977 18.5C41.8997 24 43.8344 25.5 44.8018 30.5C45.7691 35.5 43.1462 37.8937 38.0304 40C39.56 37.3941 40.4694 35.9617 40.4487 32.5C38.2236 25.8648 35.1284 24 34.161 19Z" fill="#A911E5"/>
<path d="M46.161 13.6562C45.1937 8.8125 48.6869 5.26159 53.8997 3C51.213 6.35304 48.0957 7.84375 50.9977 13.1719C53.8997 18.5 55.8344 19.9531 56.8018 24.7969C57.7691 29.6406 55.1462 31.9595 50.0304 34C51.56 31.4756 52.4694 30.0879 52.4487 26.7344C50.2236 20.3065 47.1284 18.5 46.161 13.6562Z" fill="#A911E5"/>
<line y1="-0.5" x2="22.962" y2="-0.5" transform="matrix(-0.426279 0.904592 -0.954095 -0.299505 36.0904 50.4528)" stroke="#A911E5"/>
<line y1="-0.5" x2="22.962" y2="-0.5" transform="matrix(-0.426279 0.904592 -0.954095 -0.299505 50.7727 50.4528)" stroke="#A911E5"/>
<path d="M48.09 69.31C47.83 69.31 47.56 69.25 47.28 69.13C46.98 69.03 46.75 68.97 46.59 68.95C46.47 68.91 46.36 68.82 46.26 68.68C46.16 68.56 46.11 68.5 46.11 68.5C46.17 68.34 46.23 68.27 46.29 68.29C46.33 68.31 46.42 68.31 46.56 68.29C46.58 68.29 46.61 68.28 46.65 68.26C46.67 68.26 46.69 68.26 46.71 68.26C46.77 68.26 46.84 68.26 46.92 68.26C46.98 68.28 47.05 68.29 47.13 68.29C47.27 68.29 47.38 68.26 47.46 68.2C47.62 68.08 47.82 67.91 48.06 67.69C48.32 67.47 48.5 67.29 48.6 67.15C48.64 67.11 48.66 67.04 48.66 66.94C48.68 66.84 48.73 66.8 48.81 66.82C49.21 66.34 49.58 65.87 49.92 65.41C50.28 64.93 50.64 64.45 51 63.97C51.1 63.69 51.24 63.42 51.42 63.16C51.62 62.9 51.81 62.66 51.99 62.44C52.39 61.98 52.75 61.51 53.07 61.03C53.05 60.95 53.12 60.82 53.28 60.64C53.44 60.44 53.54 60.3 53.58 60.22C53.56 60.12 53.59 59.92 53.67 59.62C53.75 59.3 53.84 58.98 53.94 58.66C54.04 58.32 54.1 58.07 54.12 57.91C54.08 57.93 54.07 57.87 54.09 57.73C54.13 57.57 54.17 57.39 54.21 57.19C54.27 56.99 54.3 56.86 54.3 56.8L54.45 55.45C54.47 55.35 54.48 55.27 54.48 55.21C54.48 55.13 54.48 55.07 54.48 55.03C54.48 54.91 54.47 54.81 54.45 54.73C54.45 54.63 54.44 54.49 54.42 54.31C54.42 54.15 54.43 53.99 54.45 53.83C54.47 53.65 54.48 53.48 54.48 53.32C54.48 53.16 54.47 53.05 54.45 52.99C54.45 52.91 54.45 52.85 54.45 52.81C54.47 52.77 54.48 52.74 54.48 52.72C54.48 52.68 54.44 52.57 54.36 52.39C54.32 52.39 54.3 52.36 54.3 52.3C54.3 52.22 54.32 52.14 54.36 52.06C54.4 51.98 54.44 51.96 54.48 52C54.56 52.06 54.64 52.23 54.72 52.51C54.8 52.79 54.87 53.08 54.93 53.38C55.01 53.68 55.05 53.91 55.05 54.07C55.05 54.13 55.05 54.19 55.05 54.25C55.05 54.31 55.06 54.37 55.08 54.43C55.1 54.55 55.12 54.73 55.14 54.97C55.18 55.19 55.2 55.36 55.2 55.48V55.69C55.2 55.77 55.2 55.87 55.2 55.99C55.2 56.09 55.19 56.2 55.17 56.32C55.15 56.58 55.12 56.82 55.08 57.04C55.06 57.26 55.05 57.46 55.05 57.64C55.05 57.8 55.07 57.94 55.11 58.06C55.17 57.9 55.25 57.76 55.35 57.64C55.47 57.5 55.59 57.38 55.71 57.28C55.75 57.3 55.77 57.31 55.77 57.31C55.77 57.31 55.81 57.25 55.89 57.13L56.28 56.77C56.3 56.75 56.33 56.71 56.37 56.65C56.41 56.57 56.45 56.54 56.49 56.56L56.64 56.32L57.18 55.99C57.24 55.91 57.31 55.81 57.39 55.69C57.49 55.57 57.58 55.47 57.66 55.39C57.96 55.11 58.28 54.85 58.62 54.61C58.96 54.37 59.31 54.13 59.67 53.89C59.79 53.81 59.9 53.76 60 53.74C60.12 53.7 60.23 53.64 60.33 53.56C60.35 53.54 60.38 53.52 60.42 53.5C60.46 53.46 60.49 53.46 60.51 53.5L60.81 53.32L60.84 53.35C60.88 53.35 61.04 53.27 61.32 53.11L61.53 52.99L61.56 53.02L62.01 52.81V52.84C62.19 52.84 62.31 52.82 62.37 52.78L62.4 52.72C62.52 52.62 62.66 52.56 62.82 52.54C63 52.52 63.16 52.48 63.3 52.42L63.36 52.48L63.9 52.36C64.06 52.38 64.19 52.38 64.29 52.36C64.41 52.32 64.53 52.3 64.65 52.3C64.69 52.3 64.73 52.3 64.77 52.3C64.83 52.3 64.9 52.32 64.98 52.36C65.02 52.32 65.08 52.3 65.16 52.3C65.3 52.3 65.46 52.33 65.64 52.39C65.84 52.43 65.97 52.46 66.03 52.48L66.39 52.57C66.83 52.81 67.2 53.12 67.5 53.5C67.6 53.66 67.7 53.85 67.8 54.07C67.92 54.29 67.99 54.48 68.01 54.64L67.98 54.88C67.98 54.94 67.98 55 67.98 55.06C68 55.12 68.01 55.18 68.01 55.24C68.01 55.66 67.93 56.09 67.77 56.53C67.61 56.95 67.41 57.34 67.17 57.7C66.87 58.14 66.54 58.54 66.18 58.9C65.84 59.24 65.52 59.58 65.22 59.92C65.16 59.9 65.02 60.01 64.8 60.25C64.58 60.49 64.42 60.64 64.32 60.7C64.32 60.66 64.31 60.66 64.29 60.7C64.29 60.74 64.29 60.77 64.29 60.79L63.78 61.09C63.78 61.13 63.66 61.22 63.42 61.36C63.2 61.48 63.07 61.55 63.03 61.57C62.95 61.61 62.88 61.66 62.82 61.72C62.76 61.78 62.68 61.83 62.58 61.87H62.52L61.92 62.17C61.92 62.13 61.91 62.11 61.89 62.11C61.87 62.11 61.83 62.14 61.77 62.2C61.71 62.26 61.66 62.28 61.62 62.26L61.2 62.32C61.18 62.32 61.13 62.35 61.05 62.41C60.99 62.47 60.95 62.48 60.93 62.44L59.91 62.92C59.71 62.96 59.5 62.98 59.28 62.98C59.08 62.96 58.87 62.95 58.65 62.95C58.65 62.97 58.63 62.98 58.59 62.98C58.55 62.96 58.53 62.94 58.53 62.92C58.41 62.98 58.15 63.01 57.75 63.01C57.25 63.01 56.88 62.97 56.64 62.89C56.64 62.91 56.62 62.92 56.58 62.92C56.56 62.92 56.52 62.91 56.46 62.89C56.42 62.85 56.38 62.83 56.34 62.83C56.22 62.81 56.05 62.72 55.83 62.56C55.63 62.4 55.45 62.28 55.29 62.2C55.27 62.16 55.22 62.13 55.14 62.11C55.08 62.09 55.04 62.07 55.02 62.05C54.98 61.97 54.96 61.93 54.96 61.93C54.96 61.83 55.06 61.78 55.26 61.78C55.46 61.76 55.58 61.76 55.62 61.78C55.88 61.88 56.06 61.93 56.16 61.93C56.24 61.93 56.34 61.93 56.46 61.93C56.58 61.91 56.8 61.9 57.12 61.9C57.58 61.9 58.05 61.88 58.53 61.84C59.03 61.8 59.49 61.68 59.91 61.48H59.94C59.98 61.48 60.02 61.47 60.06 61.45C60.12 61.41 60.16 61.41 60.18 61.45L60.48 61.18C60.5 61.2 60.53 61.2 60.57 61.18C60.61 61.16 60.64 61.15 60.66 61.15L61.02 61.09C61.02 61.05 61.05 61 61.11 60.94C61.19 60.88 61.24 60.87 61.26 60.91L61.53 60.82H61.59L61.86 60.61H61.89C61.97 60.61 62.05 60.58 62.13 60.52C62.21 60.44 62.27 60.39 62.31 60.37C62.31 60.35 62.34 60.34 62.4 60.34C62.48 60.3 62.59 60.21 62.73 60.07C62.87 59.91 62.96 59.87 63 59.95L63.21 59.8H63.24C63.3 59.78 63.34 59.75 63.36 59.71C63.38 59.65 63.43 59.63 63.51 59.65C63.55 59.59 63.63 59.51 63.75 59.41C63.89 59.29 63.96 59.19 63.96 59.11C64.16 58.95 64.37 58.82 64.59 58.72C64.81 58.6 64.96 58.41 65.04 58.15C65.06 58.15 65.14 58.09 65.28 57.97C65.42 57.83 65.56 57.67 65.7 57.49C65.86 57.31 65.98 57.17 66.06 57.07C66.08 57.05 66.12 57.05 66.18 57.07C66.26 57.07 66.34 57.06 66.42 57.04C66.5 57.04 66.58 57.01 66.66 56.95C66.74 56.89 66.73 56.83 66.63 56.77C66.53 56.71 66.46 56.68 66.42 56.68C66.38 56.66 66.37 56.6 66.39 56.5C66.41 56.36 66.45 56.23 66.51 56.11C66.57 55.97 66.63 55.84 66.69 55.72L66.87 55.33C66.91 55.15 66.92 55.04 66.9 55C66.9 54.96 66.9 54.85 66.9 54.67C66.9 53.99 66.71 53.53 66.33 53.29C65.97 53.03 65.49 52.8 64.89 52.6C64.87 52.62 64.84 52.63 64.8 52.63C64.76 52.61 64.72 52.6 64.68 52.6C64.6 52.58 64.42 52.59 64.14 52.63C63.88 52.65 63.73 52.65 63.69 52.63C63.55 52.71 63.41 52.75 63.27 52.75C63.15 52.73 63.01 52.76 62.85 52.84C62.83 52.82 62.69 52.87 62.43 52.99C62.17 53.09 62.01 53.18 61.95 53.26C61.85 53.28 61.72 53.33 61.56 53.41C61.42 53.49 61.33 53.52 61.29 53.5L61.14 53.68C60.98 53.7 60.79 53.78 60.57 53.92C60.35 54.04 60.23 54.08 60.21 54.04L59.94 54.25C59.96 54.27 59.97 54.29 59.97 54.31C59.97 54.39 59.91 54.44 59.79 54.46C59.67 54.48 59.6 54.49 59.58 54.49L59.55 54.58L59.28 54.76L59.19 54.85C59.17 54.87 59.14 54.88 59.1 54.88C59.06 54.86 59.03 54.87 59.01 54.91C58.93 54.99 58.83 55.1 58.71 55.24C58.59 55.38 58.49 55.47 58.41 55.51C58.21 55.59 58.01 55.74 57.81 55.96C57.61 56.16 57.43 56.34 57.27 56.5C57.25 56.52 57.17 56.58 57.03 56.68C56.89 56.78 56.8 56.82 56.76 56.8C56.7 56.88 56.61 57.01 56.49 57.19C56.37 57.37 56.26 57.48 56.16 57.52L56.01 57.85C55.87 57.91 55.76 57.99 55.68 58.09C55.6 58.19 55.5 58.26 55.38 58.3C55.34 58.5 55.24 58.68 55.08 58.84C54.94 59 54.82 59.17 54.72 59.35C54.76 59.55 54.78 59.78 54.78 60.04C54.78 60.28 54.76 60.52 54.72 60.76C54.7 61 54.64 61.2 54.54 61.36V61.39C54.54 61.47 54.5 61.56 54.42 61.66C54.34 61.76 54.31 61.9 54.33 62.08C54.25 62.14 54.17 62.29 54.09 62.53C54.03 62.77 53.97 62.95 53.91 63.07C53.89 63.11 53.83 63.18 53.73 63.28C53.65 63.36 53.63 63.42 53.67 63.46C53.49 63.68 53.37 63.94 53.31 64.24C53.25 64.52 53.13 64.77 52.95 64.99L52.89 64.93C52.87 65.01 52.85 65.08 52.83 65.14C52.81 65.2 52.77 65.27 52.71 65.35C52.69 65.39 52.62 65.51 52.5 65.71C52.38 65.89 52.26 66.07 52.14 66.25C52.02 66.43 51.95 66.52 51.93 66.52L51.78 66.82C51.72 66.82 51.65 66.85 51.57 66.91C51.51 66.97 51.46 67.02 51.42 67.06C51.44 67.14 51.39 67.24 51.27 67.36C51.15 67.5 51.07 67.53 51.03 67.45C50.85 67.63 50.7 67.82 50.58 68.02C50.46 68.22 50.27 68.4 50.01 68.56C49.95 68.58 49.79 68.65 49.53 68.77C49.27 68.89 49.14 68.97 49.14 69.01L48.87 69.16C48.85 69.14 48.79 69.17 48.69 69.25C48.61 69.35 48.53 69.35 48.45 69.25C48.39 69.27 48.33 69.28 48.27 69.28C48.21 69.3 48.15 69.31 48.09 69.31ZM48.6 68.17C48.66 68.17 48.73 68.13 48.81 68.05H48.84C48.9 68.05 48.97 68 49.05 67.9C49.13 67.8 49.18 67.73 49.2 67.69C49.3 67.65 49.38 67.6 49.44 67.54C49.52 67.48 49.58 67.42 49.62 67.36L50.4 66.61C50.7 66.31 50.94 66.02 51.12 65.74C51.3 65.46 51.48 65.15 51.66 64.81C51.7 64.75 51.78 64.6 51.9 64.36C52.04 64.12 52.14 64 52.2 64C52.42 63.6 52.58 63.22 52.68 62.86C52.8 62.48 52.95 62.08 53.13 61.66L53.04 61.54C53 61.6 52.93 61.68 52.83 61.78C52.73 61.88 52.69 61.98 52.71 62.08C52.67 62.1 52.55 62.25 52.35 62.53C52.17 62.79 51.95 63.11 51.69 63.49C51.45 63.85 51.2 64.22 50.94 64.6C50.7 64.98 50.49 65.31 50.31 65.59C50.15 65.87 50.06 66.03 50.04 66.07C49.96 66.13 49.89 66.21 49.83 66.31C49.77 66.41 49.72 66.51 49.68 66.61L49.65 66.58C49.53 66.72 49.35 66.95 49.11 67.27C48.89 67.59 48.71 67.8 48.57 67.9C48.55 67.96 48.54 68.02 48.54 68.08C48.54 68.14 48.56 68.17 48.6 68.17Z" fill="#A911E5"/>
<path d="M33.24 69.09C33.12 69.09 33.06 69.02 33.06 68.88C33.06 68.78 33.09 68.66 33.15 68.52C33.31 68.18 33.49 67.7 33.69 67.08C33.91 66.46 34.18 65.93 34.5 65.49C34.6 65.27 34.75 65 34.95 64.68C35.17 64.34 35.38 63.94 35.58 63.48V63.33C35.58 63.27 35.58 63.22 35.58 63.18C35.6 63.12 35.62 63.06 35.64 63C35.72 62.84 35.79 62.73 35.85 62.67C35.93 62.61 36.01 62.5 36.09 62.34C36.09 62.3 36.09 62.26 36.09 62.22C36.11 62.18 36.13 62.14 36.15 62.1C36.11 62.14 36.1 62.11 36.12 62.01C36.08 62.01 36.12 61.91 36.24 61.71C36.32 61.53 36.38 61.43 36.42 61.41H36.45C36.53 61.29 36.6 61.19 36.66 61.11C36.72 61.01 36.74 60.95 36.72 60.93V60.87C36.72 60.73 36.76 60.6 36.84 60.48C36.94 60.36 37.03 60.23 37.11 60.09C37.17 60.01 37.22 59.97 37.26 59.97C37.3 59.97 37.32 59.98 37.32 60C37.34 60 37.36 60 37.38 60C37.44 60 37.47 59.95 37.47 59.85C37.47 59.81 37.46 59.76 37.44 59.7C37.44 59.64 37.43 59.57 37.41 59.49C37.43 59.39 37.51 59.31 37.65 59.25L37.74 59.22C37.84 58.8 37.96 58.52 38.1 58.38C38.14 58.34 38.18 58.3 38.22 58.26C38.26 58.22 38.3 58.18 38.34 58.14C38.58 57.88 38.76 57.6 38.88 57.3C38.92 57.22 38.97 57.16 39.03 57.12C39.11 57.06 39.18 56.99 39.24 56.91C39.28 56.85 39.29 56.79 39.27 56.73C39.27 56.65 39.28 56.58 39.3 56.52C39.4 56.36 39.47 56.27 39.51 56.25C39.55 56.23 39.59 56.21 39.63 56.19C39.69 56.15 39.79 56.06 39.93 55.92C39.99 55.82 40.05 55.72 40.11 55.62C40.19 55.52 40.27 55.42 40.35 55.32C40.47 55.18 40.6 55.08 40.74 55.02C40.88 54.96 41.02 54.87 41.16 54.75C41.2 54.71 41.22 54.65 41.22 54.57C41.22 54.47 41.24 54.4 41.28 54.36C41.98 53.8 42.73 53.33 43.53 52.95C44.35 52.57 44.98 52.38 45.42 52.38C45.58 52.38 45.73 52.39 45.87 52.41C46.03 52.43 46.18 52.46 46.32 52.5H46.38C46.48 52.5 46.58 52.52 46.68 52.56C46.78 52.6 46.87 52.64 46.95 52.68C47.03 52.68 47.13 52.7 47.25 52.74C47.35 52.78 47.41 52.84 47.43 52.92C47.45 53 47.43 53.06 47.37 53.1C47.35 53.12 47.32 53.12 47.28 53.1C47.24 53.08 47.2 53.07 47.16 53.07C47.12 53.07 47.08 53.05 47.04 53.01C47 52.97 46.96 52.94 46.92 52.92C46.84 52.92 46.75 52.93 46.65 52.95C46.57 52.97 46.48 52.98 46.38 52.98H46.29C46.15 52.98 46.05 52.96 45.99 52.92C45.95 52.86 45.85 52.85 45.69 52.89C45.67 52.89 45.61 52.9 45.51 52.92C45.41 52.94 45.34 52.95 45.3 52.95C44.58 53.13 43.95 53.43 43.41 53.85C42.87 54.25 42.39 54.7 41.97 55.2C41.57 55.7 41.18 56.18 40.8 56.64C40.62 57 40.44 57.29 40.26 57.51C40.24 57.53 40.22 57.52 40.2 57.48C40.18 57.44 40.16 57.44 40.14 57.48C40.08 57.54 40.03 57.64 39.99 57.78C39.97 57.9 39.93 58 39.87 58.08C39.85 58.1 39.83 58.09 39.81 58.05C39.79 58.01 39.76 58.01 39.72 58.05C39.7 58.07 39.67 58.15 39.63 58.29C39.61 58.41 39.58 58.49 39.54 58.53C39.3 58.85 39.04 59.16 38.76 59.46C38.48 59.76 38.2 60.11 37.92 60.51C37.52 61.13 37.14 61.74 36.78 62.34C36.42 62.94 36.04 63.6 35.64 64.32C35.5 64.56 35.39 64.78 35.31 64.98C35.25 65.16 35.18 65.33 35.1 65.49C35.06 65.55 35.04 65.63 35.04 65.73C35.04 65.87 35.12 65.94 35.28 65.94C35.4 65.94 35.52 65.91 35.64 65.85L35.94 65.73C36.42 65.29 36.92 64.92 37.44 64.62C37.46 64.62 37.47 64.62 37.47 64.62C37.49 64.6 37.51 64.59 37.53 64.59C37.59 64.59 37.63 64.63 37.65 64.71C37.67 64.77 37.65 64.82 37.59 64.86C37.01 65.18 36.47 65.59 35.97 66.09C35.95 66.13 35.93 66.17 35.91 66.21C35.89 66.25 35.86 66.29 35.82 66.33C35.78 66.37 35.72 66.44 35.64 66.54C35.58 66.64 35.55 66.7 35.55 66.72C35.53 66.78 35.5 66.8 35.46 66.78C35.44 66.76 35.38 66.79 35.28 66.87C35.26 66.89 35.24 66.93 35.22 66.99C35.22 67.05 35.21 67.1 35.19 67.14C35.17 67.2 35.13 67.25 35.07 67.29C35.03 67.31 35.01 67.33 35.01 67.35C34.99 67.43 34.95 67.48 34.89 67.5C34.85 67.5 34.81 67.52 34.77 67.56C34.75 67.58 34.75 67.61 34.77 67.65C34.79 67.69 34.78 67.73 34.74 67.77C34.72 67.83 34.7 67.86 34.68 67.86C34.66 67.84 34.63 67.85 34.59 67.89C34.51 67.97 34.45 68.01 34.41 68.01C34.29 68.05 34.24 68.08 34.26 68.1C34.3 68.12 34.33 68.14 34.35 68.16C34.39 68.16 34.36 68.19 34.26 68.25C34.22 68.27 34.18 68.33 34.14 68.43C34.1 68.51 34.06 68.57 34.02 68.61C33.96 68.65 33.9 68.68 33.84 68.7C33.8 68.72 33.75 68.76 33.69 68.82C33.51 69 33.36 69.09 33.24 69.09Z" fill="#A911E5"/>
<path d="M16.59 67.11C16.47 67.07 16.34 67.04 16.2 67.02C16.08 67 15.95 66.97 15.81 66.93L15.96 67.02C15.88 67.02 15.8 67 15.72 66.96C15.66 66.94 15.6 66.94 15.54 66.96L14.97 66.81L14.94 66.78C14.86 66.7 14.78 66.63 14.7 66.57C14.62 66.51 14.51 66.5 14.37 66.54C14.41 66.56 14.45 66.57 14.49 66.57C14.53 66.57 14.56 66.59 14.58 66.63H14.52C14.44 66.63 14.38 66.61 14.34 66.57C14.3 66.53 14.25 66.49 14.19 66.45C13.89 66.27 13.62 66.06 13.38 65.82V65.79C13.3 65.69 13.24 65.59 13.2 65.49C13.16 65.37 13.09 65.28 12.99 65.22H12.96C12.9 65.1 12.84 64.97 12.78 64.83C12.74 64.67 12.7 64.52 12.66 64.38C12.66 64.32 12.65 64.27 12.63 64.23C12.63 64.17 12.63 64.11 12.63 64.05C12.63 63.97 12.63 63.9 12.63 63.84C12.65 63.76 12.67 63.68 12.69 63.6C12.59 63.64 12.54 63.61 12.54 63.51C12.52 63.29 12.51 63.07 12.51 62.85C12.53 62.63 12.56 62.39 12.6 62.13L12.69 61.68C12.73 61.58 12.79 61.51 12.87 61.47C12.95 61.43 12.98 61.36 12.96 61.26C12.94 61.26 12.92 61.27 12.9 61.29C12.88 61.31 12.85 61.32 12.81 61.32C12.81 61.32 12.8 61.32 12.78 61.32C12.78 61.3 12.78 61.28 12.78 61.26H12.81V61.23C12.79 61.21 12.79 61.2 12.81 61.2C12.83 61.2 12.83 61.19 12.81 61.17V61.14C12.81 61.04 12.84 60.94 12.9 60.84C12.96 60.72 13.01 60.6 13.05 60.48C13.09 60.38 13.15 60.29 13.23 60.21C13.33 60.13 13.36 60.03 13.32 59.91H13.23C13.29 59.87 13.32 59.83 13.32 59.79L13.35 59.76L13.65 59.13H13.68C13.84 59.13 13.91 59.09 13.89 59.01C13.89 58.93 13.89 58.84 13.89 58.74V58.71L14.13 58.32C14.25 58.26 14.33 58.17 14.37 58.05C14.41 57.91 14.47 57.8 14.55 57.72C14.59 57.62 14.65 57.54 14.73 57.48C14.81 57.4 14.88 57.31 14.94 57.21C15.06 57.05 15.18 56.9 15.3 56.76C15.42 56.6 15.55 56.45 15.69 56.31C15.79 56.27 15.86 56.22 15.9 56.16C15.94 56.1 15.99 56.03 16.05 55.95C16.05 55.93 16.05 55.92 16.05 55.92C16.07 55.92 16.08 55.91 16.08 55.89C16.14 55.81 16.22 55.76 16.32 55.74C16.42 55.72 16.49 55.66 16.53 55.56C16.57 55.46 16.63 55.37 16.71 55.29C16.87 55.13 17.04 54.98 17.22 54.84C17.4 54.68 17.58 54.53 17.76 54.39C17.88 54.37 17.97 54.35 18.03 54.33C18.09 54.29 18.12 54.21 18.12 54.09H18.15C18.37 53.93 18.59 53.78 18.81 53.64C19.03 53.5 19.24 53.37 19.44 53.25C19.6 53.15 19.75 53.06 19.89 52.98C20.05 52.9 20.2 52.82 20.34 52.74H20.43C20.51 52.74 20.57 52.72 20.61 52.68C20.65 52.64 20.7 52.59 20.76 52.53H20.79C22.27 51.87 23.64 51.54 24.9 51.54C25.06 51.54 25.23 51.55 25.41 51.57C25.59 51.57 25.76 51.58 25.92 51.6C26.86 51.72 27.57 52.03 28.05 52.53C28.53 53.01 28.77 53.54 28.77 54.12C28.77 54.32 28.74 54.53 28.68 54.75C28.88 54.61 29.06 54.47 29.22 54.33C29.38 54.19 29.51 54.03 29.61 53.85C29.65 53.79 29.7 53.77 29.76 53.79C29.82 53.79 29.83 53.82 29.79 53.88C29.73 54.06 29.6 54.26 29.4 54.48C29.2 54.68 28.98 54.86 28.74 55.02C28.74 55.04 28.69 55.11 28.59 55.23C28.49 55.33 28.45 55.4 28.47 55.44C28.47 55.46 28.44 55.5 28.38 55.56C28.34 55.6 28.31 55.64 28.29 55.68L28.08 55.95C28.08 55.95 28.08 55.96 28.08 55.98C28.08 55.98 28.07 55.99 28.05 56.01C28.05 56.01 28.01 56.03 27.93 56.07C27.89 56.11 27.83 56.18 27.75 56.28C27.69 56.38 27.61 56.45 27.51 56.49L27.39 56.55C27.37 56.57 27.35 56.6 27.33 56.64C27.31 56.66 27.28 56.69 27.24 56.73C27.16 56.81 27.01 56.91 26.79 57.03C26.59 57.13 26.44 57.22 26.34 57.3C26.34 57.3 26.32 57.31 26.28 57.33C26.24 57.35 26.19 57.38 26.13 57.42L26.04 57.45C26.02 57.45 25.98 57.47 25.92 57.51C25.88 57.55 25.85 57.58 25.83 57.6C25.81 57.62 25.78 57.63 25.74 57.63C25.72 57.63 25.69 57.65 25.65 57.69C25.63 57.71 25.6 57.72 25.56 57.72C25.52 57.72 25.48 57.74 25.44 57.78L24.99 57.9C24.97 57.92 24.91 57.96 24.81 58.02C24.73 58.06 24.68 58.08 24.66 58.08H24.6C24.58 58.08 24.56 58.09 24.54 58.11C24.54 58.13 24.52 58.14 24.48 58.14C24.46 58.16 24.43 58.17 24.39 58.17C24.37 58.15 24.34 58.15 24.3 58.17C24.28 58.17 24.25 58.19 24.21 58.23C24.19 58.25 24.17 58.26 24.15 58.26H24.06L23.88 58.35C23.8 58.37 23.71 58.38 23.61 58.38C23.53 58.38 23.44 58.4 23.34 58.44C23.32 58.44 23.28 58.43 23.22 58.41C23.18 58.39 23.14 58.38 23.1 58.38C22.92 58.44 22.74 58.47 22.56 58.47C22.54 58.49 22.52 58.49 22.5 58.47C22.5 58.45 22.49 58.44 22.47 58.44C22.45 58.44 22.44 58.45 22.44 58.47C22.44 58.47 22.43 58.47 22.41 58.47C22.41 58.47 22.38 58.47 22.32 58.47C22.28 58.45 22.25 58.43 22.23 58.41H22.2C22.16 58.41 22.13 58.4 22.11 58.38C22.09 58.36 22.07 58.35 22.05 58.35C22.05 58.35 22.05 58.36 22.05 58.38C22.05 58.38 22.04 58.38 22.02 58.38C22 58.38 21.98 58.37 21.96 58.35C21.92 58.35 21.85 58.34 21.75 58.32C21.67 58.28 21.62 58.25 21.6 58.23C21.54 58.25 21.48 58.23 21.42 58.17C21.38 58.13 21.36 58.12 21.36 58.14L21.15 58.05C21.15 58.03 21.14 58.02 21.12 58.02C21.12 58 21.12 57.99 21.12 57.99H21.06C21.02 57.95 20.99 57.93 20.97 57.93C20.95 57.87 20.93 57.83 20.91 57.81C20.89 57.79 20.86 57.76 20.82 57.72C20.82 57.64 20.81 57.6 20.79 57.6C20.79 57.56 20.76 57.5 20.7 57.42C20.66 57.32 20.64 57.23 20.64 57.15L20.61 57.12C20.53 57.04 20.51 56.9 20.55 56.7C20.57 56.6 20.56 56.56 20.52 56.58C20.48 56.58 20.49 56.52 20.55 56.4L20.7 56.1C20.7 56.08 20.69 56.07 20.67 56.07C20.65 56.05 20.65 56.03 20.67 56.01C20.67 55.99 20.67 55.98 20.67 55.98C20.69 55.96 20.7 55.94 20.7 55.92C20.72 55.9 20.73 55.86 20.73 55.8C20.73 55.76 20.74 55.73 20.76 55.71C20.76 55.69 20.78 55.65 20.82 55.59C20.88 55.51 20.92 55.46 20.94 55.44L21.12 55.23C21.14 55.21 21.17 55.19 21.21 55.17C21.25 55.15 21.28 55.12 21.3 55.08C21.34 55.04 21.38 55.02 21.42 55.02C21.48 55 21.52 54.97 21.54 54.93C21.6 54.83 21.67 54.78 21.75 54.78H21.81C21.89 54.78 21.93 54.8 21.93 54.84C21.93 54.94 21.87 55.02 21.75 55.08C21.67 55.16 21.63 55.2 21.63 55.2C21.63 55.18 21.6 55.2 21.54 55.26C21.54 55.28 21.52 55.29 21.48 55.29C21.46 55.29 21.45 55.31 21.45 55.35C21.43 55.35 21.43 55.36 21.45 55.38C21.47 55.4 21.47 55.43 21.45 55.47C21.45 55.55 21.45 55.59 21.45 55.59C21.43 55.61 21.43 55.64 21.45 55.68C21.47 55.7 21.47 55.73 21.45 55.77C21.43 55.77 21.41 55.78 21.39 55.8L21.36 56.22C21.36 56.22 21.37 56.28 21.39 56.4C21.41 56.5 21.41 56.56 21.39 56.58V56.73C21.39 56.79 21.48 56.85 21.66 56.91C21.68 56.93 21.7 56.94 21.72 56.94C21.76 56.92 21.79 56.92 21.81 56.94C22.07 57.02 22.24 57.08 22.32 57.12C22.4 57.14 22.58 57.15 22.86 57.15H23.1C23.2 57.15 23.29 57.14 23.37 57.12C23.39 57.12 23.39 57.13 23.37 57.15C23.37 57.15 23.38 57.15 23.4 57.15L23.76 57.09C23.78 57.07 23.8 57.06 23.82 57.06C23.84 57.04 23.86 57.04 23.88 57.06C23.9 57.06 23.92 57.06 23.94 57.06L24.6 56.88C24.72 56.84 24.83 56.8 24.93 56.76C25.05 56.7 25.17 56.66 25.29 56.64C25.47 56.6 25.66 56.53 25.86 56.43C26.06 56.31 26.26 56.21 26.46 56.13C26.46 56.11 26.55 56.05 26.73 55.95C26.93 55.85 27.14 55.74 27.36 55.62L27.45 55.32C27.49 55.22 27.55 55.17 27.63 55.17C27.71 55.15 27.77 55.11 27.81 55.05C27.75 55.01 27.7 54.98 27.66 54.96C27.62 54.94 27.62 54.89 27.66 54.81V54.78L27.81 54.3C27.89 54.06 27.93 53.83 27.93 53.61C27.93 53.11 27.74 52.75 27.36 52.53C26.98 52.31 26.53 52.2 26.01 52.2C25.93 52.2 25.84 52.2 25.74 52.2C25.66 52.2 25.57 52.21 25.47 52.23C25.29 52.25 25.11 52.28 24.93 52.32C24.75 52.36 24.56 52.4 24.36 52.44H24.3C24.22 52.44 24.15 52.46 24.09 52.5C24.03 52.52 23.97 52.55 23.91 52.59C23.63 52.67 23.32 52.78 22.98 52.92C22.8 52.96 22.67 53.02 22.59 53.1C22.51 53.14 22.46 53.16 22.44 53.16V53.19C22.32 53.23 22.22 53.25 22.14 53.25C22.1 53.25 22.05 53.25 21.99 53.25C21.93 53.23 21.87 53.22 21.81 53.22C21.85 53.24 21.88 53.25 21.9 53.25C21.92 53.25 21.94 53.26 21.96 53.28C21.98 53.34 21.96 53.38 21.9 53.4C21.86 53.42 21.83 53.45 21.81 53.49H21.78C21.76 53.51 21.72 53.53 21.66 53.55C21.62 53.57 21.58 53.6 21.54 53.64C21.36 53.66 21.2 53.72 21.06 53.82C20.94 53.92 20.83 54.03 20.73 54.15H20.7L20.01 54.63C19.85 54.71 19.71 54.81 19.59 54.93C19.33 55.13 19.07 55.34 18.81 55.56C18.55 55.78 18.29 56 18.03 56.22H17.97C17.87 56.22 17.81 56.25 17.79 56.31C17.79 56.35 17.77 56.42 17.73 56.52H17.7C17.64 56.6 17.57 56.67 17.49 56.73C17.41 56.75 17.36 56.79 17.34 56.85C17.32 56.91 17.28 56.97 17.22 57.03L17.01 57.24C16.93 57.22 16.84 57.19 16.74 57.15C16.66 57.09 16.57 57.06 16.47 57.06C16.47 57.06 16.46 57.07 16.44 57.09C16.44 57.09 16.44 57.11 16.44 57.15C16.56 57.17 16.66 57.22 16.74 57.3C16.82 57.38 16.81 57.47 16.71 57.57L16.65 57.63C16.57 57.71 16.47 57.74 16.35 57.72C16.25 57.7 16.16 57.74 16.08 57.84C16.12 57.86 16.17 57.87 16.23 57.87C16.29 57.87 16.32 57.92 16.32 58.02C16.22 58.14 16.12 58.26 16.02 58.38C15.94 58.5 15.85 58.62 15.75 58.74C15.67 58.82 15.6 58.91 15.54 59.01C15.48 59.09 15.4 59.16 15.3 59.22C15.28 59.24 15.27 59.27 15.27 59.31C15.29 59.33 15.29 59.35 15.27 59.37V59.4L14.82 60.12C14.72 60.18 14.64 60.24 14.58 60.3C14.52 60.36 14.49 60.45 14.49 60.57C14.57 60.49 14.61 60.46 14.61 60.48V60.51C14.61 60.55 14.59 60.59 14.55 60.63C14.51 60.65 14.48 60.68 14.46 60.72L14.31 61.08C14.11 61.54 13.97 61.95 13.89 62.31C13.77 62.69 13.71 63.05 13.71 63.39C13.69 63.47 13.65 63.55 13.59 63.63C13.55 63.69 13.56 63.76 13.62 63.84C13.66 63.88 13.69 63.91 13.71 63.93C13.73 63.93 13.74 63.97 13.74 64.05C13.74 64.15 13.75 64.22 13.77 64.26V64.35C13.77 64.41 13.75 64.47 13.71 64.53C13.67 64.59 13.66 64.65 13.68 64.71C13.7 64.73 13.74 64.74 13.8 64.74C13.86 64.72 13.9 64.73 13.92 64.77L14.1 65.1C14.16 65.14 14.2 65.2 14.22 65.28C14.24 65.36 14.26 65.42 14.28 65.46C14.32 65.5 14.37 65.54 14.43 65.58C14.49 65.6 14.53 65.64 14.55 65.7C14.55 65.72 14.54 65.74 14.52 65.76C14.52 65.76 14.52 65.78 14.52 65.82C14.62 65.78 14.63 65.7 14.55 65.58C14.67 65.66 14.67 65.74 14.55 65.82C14.59 65.82 14.63 65.82 14.67 65.82C14.71 65.8 14.75 65.79 14.79 65.79C14.87 65.79 14.95 65.82 15.03 65.88C15.35 66.04 15.71 66.15 16.11 66.21C16.53 66.29 16.98 66.33 17.46 66.33C18 66.33 18.58 66.28 19.2 66.18C19.82 66.1 20.44 65.99 21.06 65.85V65.82C21.1 65.82 21.13 65.83 21.15 65.85C21.17 65.85 21.19 65.85 21.21 65.85C21.31 65.85 21.4 65.81 21.48 65.73L21.81 65.64C21.97 65.54 22.12 65.46 22.26 65.4C22.4 65.34 22.55 65.33 22.71 65.37C22.75 65.39 22.75 65.41 22.71 65.43C22.69 65.43 22.68 65.45 22.68 65.49C22.72 65.47 22.75 65.44 22.77 65.4C22.79 65.36 22.82 65.33 22.86 65.31L23.04 65.25C23.18 65.23 23.3 65.2 23.4 65.16C23.5 65.1 23.61 65.05 23.73 65.01L24.06 64.89C24.1 64.91 24.14 64.92 24.18 64.92C24.26 64.92 24.32 64.9 24.36 64.86C24.4 64.8 24.46 64.74 24.54 64.68C24.56 64.68 24.61 64.66 24.69 64.62C24.79 64.58 24.9 64.55 25.02 64.53C25.14 64.49 25.24 64.43 25.32 64.35H25.35C25.65 64.21 25.94 64.07 26.22 63.93C26.5 63.79 26.77 63.65 27.03 63.51L27.84 63.06C27.94 62.98 28.02 62.91 28.08 62.85C28.14 62.79 28.22 62.76 28.32 62.76L28.35 62.73C28.49 62.59 28.64 62.48 28.8 62.4C28.96 62.3 29.09 62.2 29.19 62.1C29.35 61.96 29.47 61.89 29.55 61.89C29.61 61.89 29.64 61.93 29.64 62.01C29.64 62.11 29.58 62.22 29.46 62.34C29.28 62.5 29.08 62.68 28.86 62.88C28.64 63.08 28.39 63.29 28.11 63.51C28.01 63.59 27.9 63.64 27.78 63.66C27.68 63.68 27.61 63.75 27.57 63.87C27.45 63.95 27.32 64.03 27.18 64.11C27.06 64.19 26.92 64.27 26.76 64.35C26.58 64.45 26.39 64.55 26.19 64.65C26.01 64.75 25.81 64.85 25.59 64.95C25.53 64.95 25.46 64.95 25.38 64.95C25.32 64.93 25.26 64.92 25.2 64.92C25.06 64.92 24.96 64.95 24.9 65.01C24.9 65.01 24.9 65.02 24.9 65.04C24.9 65.04 24.91 65.06 24.93 65.1C24.97 65.1 25.01 65.1 25.05 65.1C25.09 65.08 25.13 65.08 25.17 65.1C25.17 65.1 25.17 65.11 25.17 65.13C25.17 65.15 25.15 65.16 25.11 65.16C25.03 65.2 24.97 65.22 24.93 65.22V65.25L24.72 65.34H24.69C24.61 65.42 24.55 65.4 24.51 65.28C24.45 65.3 24.39 65.34 24.33 65.4C24.29 65.46 24.24 65.51 24.18 65.55L23.97 65.64C23.89 65.66 23.81 65.68 23.73 65.7C23.65 65.7 23.59 65.73 23.55 65.79H23.52C23.44 65.83 23.34 65.87 23.22 65.91C23.12 65.93 23.02 65.96 22.92 66V66.03H22.77C22.67 66.03 22.56 66.02 22.44 66C22.32 65.96 22.2 65.94 22.08 65.94C22.12 66 22.19 66.03 22.29 66.03C22.39 66.05 22.42 66.1 22.38 66.18C22.38 66.2 22.37 66.21 22.35 66.21L21.57 66.42V66.45C21.49 66.47 21.4 66.48 21.3 66.48C21.22 66.5 21.14 66.53 21.06 66.57C20.28 66.77 19.51 66.91 18.75 66.99C17.99 67.07 17.28 67.11 16.62 67.11H16.59ZM23.04 58.17C23.06 58.15 23.1 58.14 23.16 58.14C23.24 58.12 23.3 58.1 23.34 58.08L24 58.02C24.02 58.02 24.04 58.01 24.06 57.99C24.08 57.97 24.1 57.96 24.12 57.96C24.14 57.94 24.17 57.93 24.21 57.93C24.31 57.85 24.36 57.84 24.36 57.9C24.36 57.94 24.4 57.93 24.48 57.87C24.5 57.85 24.53 57.84 24.57 57.84C24.61 57.8 24.64 57.78 24.66 57.78C24.7 57.76 24.73 57.74 24.75 57.72C24.79 57.7 24.81 57.69 24.81 57.69C24.81 57.67 24.83 57.66 24.87 57.66H24.9C24.94 57.66 25.01 57.63 25.11 57.57C25.21 57.51 25.26 57.48 25.26 57.48C25.28 57.48 25.3 57.46 25.32 57.42C25.36 57.38 25.39 57.36 25.41 57.36C25.43 57.34 25.46 57.33 25.5 57.33C25.54 57.31 25.56 57.29 25.56 57.27C25.6 57.25 25.64 57.23 25.68 57.21C25.72 57.19 25.75 57.18 25.77 57.18C25.79 57.16 25.83 57.13 25.89 57.09C25.97 57.05 26.01 57.02 26.01 57C26.05 56.96 26.09 56.93 26.13 56.91C26.19 56.89 26.23 56.87 26.25 56.85C26.31 56.83 26.45 56.73 26.67 56.55C26.89 56.35 27.08 56.12 27.24 55.86C27.28 55.82 27.19 55.87 26.97 56.01C26.77 56.13 26.66 56.2 26.64 56.22C26.62 56.22 26.58 56.25 26.52 56.31C26.46 56.35 26.42 56.37 26.4 56.37L26.34 56.43H26.25L26.22 56.46C26.22 56.46 26.18 56.48 26.1 56.52C26.08 56.52 26.04 56.54 25.98 56.58C25.92 56.62 25.88 56.64 25.86 56.64C25.84 56.64 25.82 56.65 25.8 56.67C25.78 56.67 25.76 56.67 25.74 56.67C25.66 56.73 25.54 56.79 25.38 56.85C25.24 56.91 25.14 56.94 25.08 56.94H25.05C25.01 56.94 24.97 56.96 24.93 57L24.9 57.03L24.75 57.06C24.71 57.08 24.66 57.1 24.6 57.12C24.54 57.14 24.49 57.15 24.45 57.15C24.43 57.17 24.42 57.18 24.42 57.18C24.42 57.16 24.42 57.15 24.42 57.15C24.38 57.19 24.33 57.21 24.27 57.21C24.25 57.21 24.24 57.21 24.24 57.21C24.24 57.19 24.23 57.18 24.21 57.18C24.19 57.18 24.15 57.21 24.09 57.27H23.94C23.94 57.29 23.92 57.3 23.88 57.3H23.85C23.83 57.3 23.8 57.31 23.76 57.33C23.72 57.35 23.69 57.36 23.67 57.36C23.65 57.36 23.64 57.37 23.64 57.39C23.64 57.39 23.63 57.39 23.61 57.39C23.61 57.37 23.6 57.36 23.58 57.36H23.55L23.37 57.42H23.28C23.22 57.42 23.15 57.41 23.07 57.39C23.01 57.37 22.94 57.37 22.86 57.39C22.84 57.39 22.83 57.4 22.83 57.42C22.83 57.42 22.82 57.42 22.8 57.42H22.74C22.74 57.42 22.73 57.42 22.71 57.42C22.71 57.42 22.7 57.43 22.68 57.45C22.68 57.43 22.67 57.42 22.65 57.42H22.47C22.47 57.4 22.46 57.39 22.44 57.39C22.42 57.39 22.4 57.4 22.38 57.42C22.36 57.42 22.34 57.42 22.32 57.42C22.2 57.42 22.11 57.38 22.05 57.3C21.99 57.22 21.88 57.2 21.72 57.24C21.72 57.22 21.71 57.21 21.69 57.21C21.67 57.19 21.66 57.17 21.66 57.15H21.63C21.59 57.19 21.57 57.22 21.57 57.24C21.55 57.26 21.55 57.29 21.57 57.33C21.61 57.35 21.62 57.38 21.6 57.42C21.62 57.44 21.63 57.47 21.63 57.51C21.65 57.53 21.67 57.54 21.69 57.54C21.69 57.6 21.72 57.66 21.78 57.72C21.78 57.74 21.79 57.76 21.81 57.78C21.85 57.8 21.86 57.81 21.84 57.81C21.86 57.83 21.88 57.84 21.9 57.84C21.92 57.84 21.93 57.86 21.93 57.9L22.02 57.99H22.05C22.23 58.07 22.41 58.13 22.59 58.17C22.79 58.19 22.94 58.19 23.04 58.17Z" fill="#A911E5"/>
<path d="M8 45C13.9362 38.059 61.7553 38.72 70 44.6695" stroke="#A911E5"/>
<path d="M80.5609 64.4539C82.3644 51.9593 78.5255 49.4711 70.6404 46V53.2497C70.6404 53.2497 76.4007 55.2269 74.8006 61.4881C73.2005 67.7492 66.8002 67.4197 66.8002 67.4197L62 74.9989C62 74.9989 77.0407 75.3285 80.5609 64.4539Z" stroke="#A911E5"/>
</svg>
