<svg width="90" height="91" viewBox="0 0 90 91" fill="none" xmlns="http://www.w3.org/2000/svg">
<path d="M70.0521 44C67.6206 50.8916 8.04997 47.8654 8.16821 44C4.45973 46.5796 8.17883 87.0035 40.0924 84.9224C72.0061 82.8413 72.6492 45.9507 70.0521 44Z" stroke="#A911E5"/>
<path d="M49.09 69.31C48.83 69.31 48.56 69.25 48.28 69.13C47.98 69.03 47.75 68.97 47.59 68.95C47.47 68.91 47.36 68.82 47.26 68.68C47.16 68.56 47.11 68.5 47.11 68.5C47.17 68.34 47.23 68.27 47.29 68.29C47.33 68.31 47.42 68.31 47.56 68.29C47.58 68.29 47.61 68.28 47.65 68.26C47.67 68.26 47.69 68.26 47.71 68.26C47.77 68.26 47.84 68.26 47.92 68.26C47.98 68.28 48.05 68.29 48.13 68.29C48.27 68.29 48.38 68.26 48.46 68.2C48.62 68.08 48.82 67.91 49.06 67.69C49.32 67.47 49.5 67.29 49.6 67.15C49.64 67.11 49.66 67.04 49.66 66.94C49.68 66.84 49.73 66.8 49.81 66.82C50.21 66.34 50.58 65.87 50.92 65.41C51.28 64.93 51.64 64.45 52 63.97C52.1 63.69 52.24 63.42 52.42 63.16C52.62 62.9 52.81 62.66 52.99 62.44C53.39 61.98 53.75 61.51 54.07 61.03C54.05 60.95 54.12 60.82 54.28 60.64C54.44 60.44 54.54 60.3 54.58 60.22C54.56 60.12 54.59 59.92 54.67 59.62C54.75 59.3 54.84 58.98 54.94 58.66C55.04 58.32 55.1 58.07 55.12 57.91C55.08 57.93 55.07 57.87 55.09 57.73C55.13 57.57 55.17 57.39 55.21 57.19C55.27 56.99 55.3 56.86 55.3 56.8L55.45 55.45C55.47 55.35 55.48 55.27 55.48 55.21C55.48 55.13 55.48 55.07 55.48 55.03C55.48 54.91 55.47 54.81 55.45 54.73C55.45 54.63 55.44 54.49 55.42 54.31C55.42 54.15 55.43 53.99 55.45 53.83C55.47 53.65 55.48 53.48 55.48 53.32C55.48 53.16 55.47 53.05 55.45 52.99C55.45 52.91 55.45 52.85 55.45 52.81C55.47 52.77 55.48 52.74 55.48 52.72C55.48 52.68 55.44 52.57 55.36 52.39C55.32 52.39 55.3 52.36 55.3 52.3C55.3 52.22 55.32 52.14 55.36 52.06C55.4 51.98 55.44 51.96 55.48 52C55.56 52.06 55.64 52.23 55.72 52.51C55.8 52.79 55.87 53.08 55.93 53.38C56.01 53.68 56.05 53.91 56.05 54.07C56.05 54.13 56.05 54.19 56.05 54.25C56.05 54.31 56.06 54.37 56.08 54.43C56.1 54.55 56.12 54.73 56.14 54.97C56.18 55.19 56.2 55.36 56.2 55.48V55.69C56.2 55.77 56.2 55.87 56.2 55.99C56.2 56.09 56.19 56.2 56.17 56.32C56.15 56.58 56.12 56.82 56.08 57.04C56.06 57.26 56.05 57.46 56.05 57.64C56.05 57.8 56.07 57.94 56.11 58.06C56.17 57.9 56.25 57.76 56.35 57.64C56.47 57.5 56.59 57.38 56.71 57.28C56.75 57.3 56.77 57.31 56.77 57.31C56.77 57.31 56.81 57.25 56.89 57.13L57.28 56.77C57.3 56.75 57.33 56.71 57.37 56.65C57.41 56.57 57.45 56.54 57.49 56.56L57.64 56.32L58.18 55.99C58.24 55.91 58.31 55.81 58.39 55.69C58.49 55.57 58.58 55.47 58.66 55.39C58.96 55.11 59.28 54.85 59.62 54.61C59.96 54.37 60.31 54.13 60.67 53.89C60.79 53.81 60.9 53.76 61 53.74C61.12 53.7 61.23 53.64 61.33 53.56C61.35 53.54 61.38 53.52 61.42 53.5C61.46 53.46 61.49 53.46 61.51 53.5L61.81 53.32L61.84 53.35C61.88 53.35 62.04 53.27 62.32 53.11L62.53 52.99L62.56 53.02L63.01 52.81V52.84C63.19 52.84 63.31 52.82 63.37 52.78L63.4 52.72C63.52 52.62 63.66 52.56 63.82 52.54C64 52.52 64.16 52.48 64.3 52.42L64.36 52.48L64.9 52.36C65.06 52.38 65.19 52.38 65.29 52.36C65.41 52.32 65.53 52.3 65.65 52.3C65.69 52.3 65.73 52.3 65.77 52.3C65.83 52.3 65.9 52.32 65.98 52.36C66.02 52.32 66.08 52.3 66.16 52.3C66.3 52.3 66.46 52.33 66.64 52.39C66.84 52.43 66.97 52.46 67.03 52.48L67.39 52.57C67.83 52.81 68.2 53.12 68.5 53.5C68.6 53.66 68.7 53.85 68.8 54.07C68.92 54.29 68.99 54.48 69.01 54.64L68.98 54.88C68.98 54.94 68.98 55 68.98 55.06C69 55.12 69.01 55.18 69.01 55.24C69.01 55.66 68.93 56.09 68.77 56.53C68.61 56.95 68.41 57.34 68.17 57.7C67.87 58.14 67.54 58.54 67.18 58.9C66.84 59.24 66.52 59.58 66.22 59.92C66.16 59.9 66.02 60.01 65.8 60.25C65.58 60.49 65.42 60.64 65.32 60.7C65.32 60.66 65.31 60.66 65.29 60.7C65.29 60.74 65.29 60.77 65.29 60.79L64.78 61.09C64.78 61.13 64.66 61.22 64.42 61.36C64.2 61.48 64.07 61.55 64.03 61.57C63.95 61.61 63.88 61.66 63.82 61.72C63.76 61.78 63.68 61.83 63.58 61.87H63.52L62.92 62.17C62.92 62.13 62.91 62.11 62.89 62.11C62.87 62.11 62.83 62.14 62.77 62.2C62.71 62.26 62.66 62.28 62.62 62.26L62.2 62.32C62.18 62.32 62.13 62.35 62.05 62.41C61.99 62.47 61.95 62.48 61.93 62.44L60.91 62.92C60.71 62.96 60.5 62.98 60.28 62.98C60.08 62.96 59.87 62.95 59.65 62.95C59.65 62.97 59.63 62.98 59.59 62.98C59.55 62.96 59.53 62.94 59.53 62.92C59.41 62.98 59.15 63.01 58.75 63.01C58.25 63.01 57.88 62.97 57.64 62.89C57.64 62.91 57.62 62.92 57.58 62.92C57.56 62.92 57.52 62.91 57.46 62.89C57.42 62.85 57.38 62.83 57.34 62.83C57.22 62.81 57.05 62.72 56.83 62.56C56.63 62.4 56.45 62.28 56.29 62.2C56.27 62.16 56.22 62.13 56.14 62.11C56.08 62.09 56.04 62.07 56.02 62.05C55.98 61.97 55.96 61.93 55.96 61.93C55.96 61.83 56.06 61.78 56.26 61.78C56.46 61.76 56.58 61.76 56.62 61.78C56.88 61.88 57.06 61.93 57.16 61.93C57.24 61.93 57.34 61.93 57.46 61.93C57.58 61.91 57.8 61.9 58.12 61.9C58.58 61.9 59.05 61.88 59.53 61.84C60.03 61.8 60.49 61.68 60.91 61.48H60.94C60.98 61.48 61.02 61.47 61.06 61.45C61.12 61.41 61.16 61.41 61.18 61.45L61.48 61.18C61.5 61.2 61.53 61.2 61.57 61.18C61.61 61.16 61.64 61.15 61.66 61.15L62.02 61.09C62.02 61.05 62.05 61 62.11 60.94C62.19 60.88 62.24 60.87 62.26 60.91L62.53 60.82H62.59L62.86 60.61H62.89C62.97 60.61 63.05 60.58 63.13 60.52C63.21 60.44 63.27 60.39 63.31 60.37C63.31 60.35 63.34 60.34 63.4 60.34C63.48 60.3 63.59 60.21 63.73 60.07C63.87 59.91 63.96 59.87 64 59.95L64.21 59.8H64.24C64.3 59.78 64.34 59.75 64.36 59.71C64.38 59.65 64.43 59.63 64.51 59.65C64.55 59.59 64.63 59.51 64.75 59.41C64.89 59.29 64.96 59.19 64.96 59.11C65.16 58.95 65.37 58.82 65.59 58.72C65.81 58.6 65.96 58.41 66.04 58.15C66.06 58.15 66.14 58.09 66.28 57.97C66.42 57.83 66.56 57.67 66.7 57.49C66.86 57.31 66.98 57.17 67.06 57.07C67.08 57.05 67.12 57.05 67.18 57.07C67.26 57.07 67.34 57.06 67.42 57.04C67.5 57.04 67.58 57.01 67.66 56.95C67.74 56.89 67.73 56.83 67.63 56.77C67.53 56.71 67.46 56.68 67.42 56.68C67.38 56.66 67.37 56.6 67.39 56.5C67.41 56.36 67.45 56.23 67.51 56.11C67.57 55.97 67.63 55.84 67.69 55.72L67.87 55.33C67.91 55.15 67.92 55.04 67.9 55C67.9 54.96 67.9 54.85 67.9 54.67C67.9 53.99 67.71 53.53 67.33 53.29C66.97 53.03 66.49 52.8 65.89 52.6C65.87 52.62 65.84 52.63 65.8 52.63C65.76 52.61 65.72 52.6 65.68 52.6C65.6 52.58 65.42 52.59 65.14 52.63C64.88 52.65 64.73 52.65 64.69 52.63C64.55 52.71 64.41 52.75 64.27 52.75C64.15 52.73 64.01 52.76 63.85 52.84C63.83 52.82 63.69 52.87 63.43 52.99C63.17 53.09 63.01 53.18 62.95 53.26C62.85 53.28 62.72 53.33 62.56 53.41C62.42 53.49 62.33 53.52 62.29 53.5L62.14 53.68C61.98 53.7 61.79 53.78 61.57 53.92C61.35 54.04 61.23 54.08 61.21 54.04L60.94 54.25C60.96 54.27 60.97 54.29 60.97 54.31C60.97 54.39 60.91 54.44 60.79 54.46C60.67 54.48 60.6 54.49 60.58 54.49L60.55 54.58L60.28 54.76L60.19 54.85C60.17 54.87 60.14 54.88 60.1 54.88C60.06 54.86 60.03 54.87 60.01 54.91C59.93 54.99 59.83 55.1 59.71 55.24C59.59 55.38 59.49 55.47 59.41 55.51C59.21 55.59 59.01 55.74 58.81 55.96C58.61 56.16 58.43 56.34 58.27 56.5C58.25 56.52 58.17 56.58 58.03 56.68C57.89 56.78 57.8 56.82 57.76 56.8C57.7 56.88 57.61 57.01 57.49 57.19C57.37 57.37 57.26 57.48 57.16 57.52L57.01 57.85C56.87 57.91 56.76 57.99 56.68 58.09C56.6 58.19 56.5 58.26 56.38 58.3C56.34 58.5 56.24 58.68 56.08 58.84C55.94 59 55.82 59.17 55.72 59.35C55.76 59.55 55.78 59.78 55.78 60.04C55.78 60.28 55.76 60.52 55.72 60.76C55.7 61 55.64 61.2 55.54 61.36V61.39C55.54 61.47 55.5 61.56 55.42 61.66C55.34 61.76 55.31 61.9 55.33 62.08C55.25 62.14 55.17 62.29 55.09 62.53C55.03 62.77 54.97 62.95 54.91 63.07C54.89 63.11 54.83 63.18 54.73 63.28C54.65 63.36 54.63 63.42 54.67 63.46C54.49 63.68 54.37 63.94 54.31 64.24C54.25 64.52 54.13 64.77 53.95 64.99L53.89 64.93C53.87 65.01 53.85 65.08 53.83 65.14C53.81 65.2 53.77 65.27 53.71 65.35C53.69 65.39 53.62 65.51 53.5 65.71C53.38 65.89 53.26 66.07 53.14 66.25C53.02 66.43 52.95 66.52 52.93 66.52L52.78 66.82C52.72 66.82 52.65 66.85 52.57 66.91C52.51 66.97 52.46 67.02 52.42 67.06C52.44 67.14 52.39 67.24 52.27 67.36C52.15 67.5 52.07 67.53 52.03 67.45C51.85 67.63 51.7 67.82 51.58 68.02C51.46 68.22 51.27 68.4 51.01 68.56C50.95 68.58 50.79 68.65 50.53 68.77C50.27 68.89 50.14 68.97 50.14 69.01L49.87 69.16C49.85 69.14 49.79 69.17 49.69 69.25C49.61 69.35 49.53 69.35 49.45 69.25C49.39 69.27 49.33 69.28 49.27 69.28C49.21 69.3 49.15 69.31 49.09 69.31ZM49.6 68.17C49.66 68.17 49.73 68.13 49.81 68.05H49.84C49.9 68.05 49.97 68 50.05 67.9C50.13 67.8 50.18 67.73 50.2 67.69C50.3 67.65 50.38 67.6 50.44 67.54C50.52 67.48 50.58 67.42 50.62 67.36L51.4 66.61C51.7 66.31 51.94 66.02 52.12 65.74C52.3 65.46 52.48 65.15 52.66 64.81C52.7 64.75 52.78 64.6 52.9 64.36C53.04 64.12 53.14 64 53.2 64C53.42 63.6 53.58 63.22 53.68 62.86C53.8 62.48 53.95 62.08 54.13 61.66L54.04 61.54C54 61.6 53.93 61.68 53.83 61.78C53.73 61.88 53.69 61.98 53.71 62.08C53.67 62.1 53.55 62.25 53.35 62.53C53.17 62.79 52.95 63.11 52.69 63.49C52.45 63.85 52.2 64.22 51.94 64.6C51.7 64.98 51.49 65.31 51.31 65.59C51.15 65.87 51.06 66.03 51.04 66.07C50.96 66.13 50.89 66.21 50.83 66.31C50.77 66.41 50.72 66.51 50.68 66.61L50.65 66.58C50.53 66.72 50.35 66.95 50.11 67.27C49.89 67.59 49.71 67.8 49.57 67.9C49.55 67.96 49.54 68.02 49.54 68.08C49.54 68.14 49.56 68.17 49.6 68.17Z" fill="#A911E5"/>
<path d="M34.15 70.22C33.91 70.22 33.66 70.19 33.4 70.13C33.16 70.09 32.91 70.01 32.65 69.89C32.51 69.69 32.32 69.59 32.08 69.59C31.94 69.43 31.79 69.32 31.63 69.26C31.51 69.18 31.38 69.06 31.24 68.9C31.12 68.74 31.01 68.65 30.91 68.63C30.69 68.37 30.48 68.1 30.28 67.82C30.08 67.54 29.9 67.25 29.74 66.95V66.89C29.74 66.75 29.69 66.64 29.59 66.56C29.51 66.48 29.43 66.38 29.35 66.26C29.27 66.12 29.25 65.98 29.29 65.84C29.33 65.68 29.27 65.54 29.11 65.42C29.05 65.24 29.01 65.04 28.99 64.82C28.99 64.6 28.94 64.42 28.84 64.28C28.8 64.2 28.78 64.15 28.78 64.13C28.78 64.05 28.8 63.98 28.84 63.92C28.88 63.86 28.91 63.79 28.93 63.71C28.83 63.69 28.78 63.61 28.78 63.47V63.38C28.78 63.16 28.87 62.99 29.05 62.87C29.23 62.75 29.42 62.69 29.62 62.69C29.94 62.69 30.13 62.81 30.19 63.05L30.28 63.38C30.2 63.48 30.16 63.56 30.16 63.62C30.16 63.68 30.23 63.78 30.37 63.92C30.39 64 30.4 64.11 30.4 64.25C30.84 64.93 31.43 65.54 32.17 66.08L32.2 66.14C32.28 66.2 32.35 66.25 32.41 66.29C32.47 66.31 32.54 66.34 32.62 66.38C32.84 66.52 32.96 66.63 32.98 66.71C33.02 66.79 33.19 66.83 33.49 66.83C33.55 66.83 33.59 66.88 33.61 66.98C33.65 67.08 33.7 67.15 33.76 67.19C33.82 67.21 33.89 67.21 33.97 67.19C34.05 67.15 34.12 67.15 34.18 67.19C34.22 67.21 34.25 67.24 34.27 67.28C34.31 67.3 34.34 67.32 34.36 67.34C34.4 67.36 34.58 67.43 34.9 67.55C35.22 67.65 35.54 67.76 35.86 67.88C36.2 67.98 36.41 68.04 36.49 68.06C36.65 67.88 36.82 67.73 37 67.61C37.18 67.47 37.34 67.3 37.48 67.1C37.62 67.06 37.7 67 37.72 66.92C37.74 66.82 37.76 66.71 37.78 66.59C37.88 66.45 37.97 66.29 38.05 66.11C38.13 65.93 38.22 65.78 38.32 65.66C38.54 65.4 38.67 65.12 38.71 64.82C38.77 64.52 38.88 64.27 39.04 64.07C39.08 64.03 39.14 63.99 39.22 63.95C39.32 63.91 39.37 63.87 39.37 63.83V63.8C39.37 63.6 39.41 63.4 39.49 63.2C39.59 62.98 39.68 62.77 39.76 62.57C39.84 62.49 39.89 62.4 39.91 62.3C39.95 62.18 40 62.08 40.06 62C40.14 61.92 40.2 61.85 40.24 61.79C40.3 61.73 40.32 61.64 40.3 61.52L40.36 61.1C40.36 61 40.38 60.88 40.42 60.74C40.48 60.58 40.52 60.45 40.54 60.35C40.58 60.15 40.64 59.91 40.72 59.63C40.8 59.33 40.88 59.1 40.96 58.94C41.1 58.68 41.2 58.41 41.26 58.13C41.32 57.83 41.39 57.55 41.47 57.29C41.61 57.21 41.68 57.08 41.68 56.9C41.72 56.82 41.77 56.63 41.83 56.33C41.89 56.03 41.92 55.84 41.92 55.76C41.86 55.76 41.79 55.74 41.71 55.7C41.65 55.5 41.67 55.27 41.77 55.01C41.87 54.73 42 54.46 42.16 54.2C42.32 53.94 42.44 53.73 42.52 53.57C42.66 53.35 42.83 53.16 43.03 53C43.23 52.82 43.47 52.73 43.75 52.73C43.85 52.73 43.96 52.74 44.08 52.76C44.2 52.76 44.29 52.8 44.35 52.88C44.61 52.98 44.74 53.13 44.74 53.33C44.74 53.47 44.69 53.64 44.59 53.84C44.49 54.02 44.42 54.2 44.38 54.38C44.14 54.48 44 54.73 43.96 55.13C43.94 55.51 43.9 55.81 43.84 56.03C43.82 56.13 43.78 56.21 43.72 56.27C43.66 56.33 43.68 56.42 43.78 56.54V56.72L43.69 56.78L43.81 56.99C43.81 57.05 43.81 57.18 43.81 57.38C43.83 57.56 43.85 57.74 43.87 57.92C43.89 58.08 43.89 58.17 43.87 58.19C43.85 58.23 43.81 58.25 43.75 58.25C43.63 58.25 43.55 58.2 43.51 58.1C43.45 57.94 43.42 57.76 43.42 57.56C43.44 57.36 43.39 57.18 43.27 57.02C43.25 56.96 43.24 56.9 43.24 56.84C43.24 56.78 43.24 56.74 43.24 56.72C43.24 56.64 43.24 56.58 43.24 56.54C43.26 56.5 43.27 56.47 43.27 56.45C43.27 56.41 43.19 56.27 43.03 56.03V55.73C42.81 56.01 42.65 56.29 42.55 56.57C42.45 56.65 42.39 56.75 42.37 56.87C42.35 56.99 42.32 57.1 42.28 57.2C42.08 57.72 41.88 58.24 41.68 58.76C41.5 59.28 41.32 59.8 41.14 60.32C41 60.4 40.93 60.51 40.93 60.65C40.93 60.77 40.91 60.89 40.87 61.01L40.3 62.57C40.16 62.61 40.09 62.68 40.09 62.78C40.11 62.86 40.12 62.95 40.12 63.05C40.12 63.19 40.08 63.32 40 63.44C39.94 63.54 39.89 63.65 39.85 63.77C39.57 64.55 39.23 65.34 38.83 66.14C38.45 66.94 38 67.67 37.48 68.33C37.76 68.39 38.03 68.44 38.29 68.48C38.55 68.54 38.81 68.59 39.07 68.63C39.33 68.67 39.65 68.71 40.03 68.75C40.43 68.79 40.73 68.83 40.93 68.87C41.15 68.91 41.39 68.94 41.65 68.96C41.91 68.98 42.15 68.99 42.37 68.99H42.58C42.66 68.99 42.72 68.99 42.76 68.99C42.82 69.01 42.9 69.04 43 69.08C43.04 69.1 43.08 69.09 43.12 69.05C43.16 69.03 43.2 69.02 43.24 69.02C43.34 69 43.44 68.99 43.54 68.99C43.64 69.01 43.73 69.02 43.81 69.02C43.85 69 43.9 68.99 43.96 68.99C44.04 68.99 44.11 69 44.17 69.02C44.25 69.06 44.32 69.08 44.38 69.08C44.48 69.08 44.56 69.06 44.62 69.02C44.68 69 44.75 68.99 44.83 68.99C44.93 69.07 45.02 69.11 45.1 69.11C45.18 69.11 45.26 69.06 45.34 68.96C45.56 68.94 45.82 68.9 46.12 68.84C46.44 68.78 46.57 68.58 46.51 68.24C46.49 68.08 46.46 67.98 46.42 67.94C46.38 67.9 46.31 67.83 46.21 67.73C46.13 67.67 46.06 67.59 46 67.49C45.94 67.39 45.86 67.33 45.76 67.31C45.72 67.27 45.7 67.21 45.7 67.13C45.7 67.01 45.77 66.95 45.91 66.95C45.99 66.95 46.07 66.99 46.15 67.07C46.23 67.11 46.28 67.17 46.3 67.25C46.34 67.33 46.4 67.4 46.48 67.46C46.52 67.54 46.59 67.6 46.69 67.64C46.79 67.68 46.88 67.74 46.96 67.82C47.18 68.14 47.29 68.43 47.29 68.69C47.29 69.07 47.12 69.39 46.78 69.65C46.44 69.91 46.04 70.05 45.58 70.07C45.54 70.03 45.48 70.01 45.4 70.01C45.32 70.01 45.25 70.02 45.19 70.04C45.15 70.06 45.09 70.07 45.01 70.07C44.63 70.05 44.24 70.01 43.84 69.95C43.44 69.89 43.05 69.84 42.67 69.8C42.63 69.8 42.59 69.79 42.55 69.77C42.51 69.77 42.47 69.77 42.43 69.77C42.29 69.67 42.11 69.62 41.89 69.62C41.69 69.62 41.51 69.6 41.35 69.56C41.29 69.54 41.15 69.51 40.93 69.47C40.73 69.43 40.53 69.39 40.33 69.35C40.15 69.31 40.04 69.3 40 69.32C39.78 69.28 39.55 69.22 39.31 69.14C39.09 69.08 38.87 69.04 38.65 69.02C38.41 68.98 38.16 68.92 37.9 68.84C37.66 68.78 37.42 68.72 37.18 68.66C36.74 69.14 36.27 69.52 35.77 69.8C35.27 70.08 34.73 70.22 34.15 70.22ZM33.94 69.71C34.44 69.71 34.86 69.58 35.2 69.32C35.56 69.06 35.9 68.75 36.22 68.39C36.02 68.35 35.82 68.3 35.62 68.24C35.42 68.18 35.22 68.11 35.02 68.03C34.84 67.95 34.68 67.89 34.54 67.85C34.42 67.79 34.26 67.74 34.06 67.7C33.98 67.68 33.89 67.65 33.79 67.61C33.69 67.57 33.59 67.54 33.49 67.52C33.35 67.46 33.22 67.38 33.1 67.28C32.98 67.16 32.84 67.12 32.68 67.16C32.58 67.12 32.47 67.08 32.35 67.04C32.25 67 32.15 66.95 32.05 66.89C31.95 66.81 31.88 66.74 31.84 66.68C31.8 66.6 31.7 66.58 31.54 66.62L31.3 66.5C31.22 66.42 31.15 66.34 31.09 66.26C31.05 66.18 30.96 66.14 30.82 66.14C30.66 66.14 30.48 66.05 30.28 65.87C30.08 65.67 29.93 65.5 29.83 65.36C29.93 65.62 30.03 65.87 30.13 66.11C30.23 66.35 30.33 66.59 30.43 66.83C30.47 66.97 30.52 67.09 30.58 67.19C30.66 67.27 30.68 67.38 30.64 67.52C30.64 67.56 30.69 67.61 30.79 67.67C30.89 67.71 30.98 67.79 31.06 67.91C31.1 68.07 31.15 68.16 31.21 68.18C31.27 68.2 31.33 68.26 31.39 68.36C31.55 68.54 31.64 68.68 31.66 68.78C31.68 68.88 31.86 68.95 32.2 68.99L32.47 69.17C32.55 69.31 32.64 69.38 32.74 69.38C32.84 69.4 32.95 69.43 33.07 69.47C33.23 69.51 33.37 69.56 33.49 69.62C33.63 69.68 33.78 69.71 33.94 69.71Z" fill="#A911E5"/>
<path d="M16.59 68.11C16.47 68.07 16.34 68.04 16.2 68.02C16.08 68 15.95 67.97 15.81 67.93L15.96 68.02C15.88 68.02 15.8 68 15.72 67.96C15.66 67.94 15.6 67.94 15.54 67.96L14.97 67.81L14.94 67.78C14.86 67.7 14.78 67.63 14.7 67.57C14.62 67.51 14.51 67.5 14.37 67.54C14.41 67.56 14.45 67.57 14.49 67.57C14.53 67.57 14.56 67.59 14.58 67.63H14.52C14.44 67.63 14.38 67.61 14.34 67.57C14.3 67.53 14.25 67.49 14.19 67.45C13.89 67.27 13.62 67.06 13.38 66.82V66.79C13.3 66.69 13.24 66.59 13.2 66.49C13.16 66.37 13.09 66.28 12.99 66.22H12.96C12.9 66.1 12.84 65.97 12.78 65.83C12.74 65.67 12.7 65.52 12.66 65.38C12.66 65.32 12.65 65.27 12.63 65.23C12.63 65.17 12.63 65.11 12.63 65.05C12.63 64.97 12.63 64.9 12.63 64.84C12.65 64.76 12.67 64.68 12.69 64.6C12.59 64.64 12.54 64.61 12.54 64.51C12.52 64.29 12.51 64.07 12.51 63.85C12.53 63.63 12.56 63.39 12.6 63.13L12.69 62.68C12.73 62.58 12.79 62.51 12.87 62.47C12.95 62.43 12.98 62.36 12.96 62.26C12.94 62.26 12.92 62.27 12.9 62.29C12.88 62.31 12.85 62.32 12.81 62.32C12.81 62.32 12.8 62.32 12.78 62.32C12.78 62.3 12.78 62.28 12.78 62.26H12.81V62.23C12.79 62.21 12.79 62.2 12.81 62.2C12.83 62.2 12.83 62.19 12.81 62.17V62.14C12.81 62.04 12.84 61.94 12.9 61.84C12.96 61.72 13.01 61.6 13.05 61.48C13.09 61.38 13.15 61.29 13.23 61.21C13.33 61.13 13.36 61.03 13.32 60.91H13.23C13.29 60.87 13.32 60.83 13.32 60.79L13.35 60.76L13.65 60.13H13.68C13.84 60.13 13.91 60.09 13.89 60.01C13.89 59.93 13.89 59.84 13.89 59.74V59.71L14.13 59.32C14.25 59.26 14.33 59.17 14.37 59.05C14.41 58.91 14.47 58.8 14.55 58.72C14.59 58.62 14.65 58.54 14.73 58.48C14.81 58.4 14.88 58.31 14.94 58.21C15.06 58.05 15.18 57.9 15.3 57.76C15.42 57.6 15.55 57.45 15.69 57.31C15.79 57.27 15.86 57.22 15.9 57.16C15.94 57.1 15.99 57.03 16.05 56.95C16.05 56.93 16.05 56.92 16.05 56.92C16.07 56.92 16.08 56.91 16.08 56.89C16.14 56.81 16.22 56.76 16.32 56.74C16.42 56.72 16.49 56.66 16.53 56.56C16.57 56.46 16.63 56.37 16.71 56.29C16.87 56.13 17.04 55.98 17.22 55.84C17.4 55.68 17.58 55.53 17.76 55.39C17.88 55.37 17.97 55.35 18.03 55.33C18.09 55.29 18.12 55.21 18.12 55.09H18.15C18.37 54.93 18.59 54.78 18.81 54.64C19.03 54.5 19.24 54.37 19.44 54.25C19.6 54.15 19.75 54.06 19.89 53.98C20.05 53.9 20.2 53.82 20.34 53.74H20.43C20.51 53.74 20.57 53.72 20.61 53.68C20.65 53.64 20.7 53.59 20.76 53.53H20.79C22.27 52.87 23.64 52.54 24.9 52.54C25.06 52.54 25.23 52.55 25.41 52.57C25.59 52.57 25.76 52.58 25.92 52.6C26.86 52.72 27.57 53.03 28.05 53.53C28.53 54.01 28.77 54.54 28.77 55.12C28.77 55.32 28.74 55.53 28.68 55.75C28.88 55.61 29.06 55.47 29.22 55.33C29.38 55.19 29.51 55.03 29.61 54.85C29.65 54.79 29.7 54.77 29.76 54.79C29.82 54.79 29.83 54.82 29.79 54.88C29.73 55.06 29.6 55.26 29.4 55.48C29.2 55.68 28.98 55.86 28.74 56.02C28.74 56.04 28.69 56.11 28.59 56.23C28.49 56.33 28.45 56.4 28.47 56.44C28.47 56.46 28.44 56.5 28.38 56.56C28.34 56.6 28.31 56.64 28.29 56.68L28.08 56.95C28.08 56.95 28.08 56.96 28.08 56.98C28.08 56.98 28.07 56.99 28.05 57.01C28.05 57.01 28.01 57.03 27.93 57.07C27.89 57.11 27.83 57.18 27.75 57.28C27.69 57.38 27.61 57.45 27.51 57.49L27.39 57.55C27.37 57.57 27.35 57.6 27.33 57.64C27.31 57.66 27.28 57.69 27.24 57.73C27.16 57.81 27.01 57.91 26.79 58.03C26.59 58.13 26.44 58.22 26.34 58.3C26.34 58.3 26.32 58.31 26.28 58.33C26.24 58.35 26.19 58.38 26.13 58.42L26.04 58.45C26.02 58.45 25.98 58.47 25.92 58.51C25.88 58.55 25.85 58.58 25.83 58.6C25.81 58.62 25.78 58.63 25.74 58.63C25.72 58.63 25.69 58.65 25.65 58.69C25.63 58.71 25.6 58.72 25.56 58.72C25.52 58.72 25.48 58.74 25.44 58.78L24.99 58.9C24.97 58.92 24.91 58.96 24.81 59.02C24.73 59.06 24.68 59.08 24.66 59.08H24.6C24.58 59.08 24.56 59.09 24.54 59.11C24.54 59.13 24.52 59.14 24.48 59.14C24.46 59.16 24.43 59.17 24.39 59.17C24.37 59.15 24.34 59.15 24.3 59.17C24.28 59.17 24.25 59.19 24.21 59.23C24.19 59.25 24.17 59.26 24.15 59.26H24.06L23.88 59.35C23.8 59.37 23.71 59.38 23.61 59.38C23.53 59.38 23.44 59.4 23.34 59.44C23.32 59.44 23.28 59.43 23.22 59.41C23.18 59.39 23.14 59.38 23.1 59.38C22.92 59.44 22.74 59.47 22.56 59.47C22.54 59.49 22.52 59.49 22.5 59.47C22.5 59.45 22.49 59.44 22.47 59.44C22.45 59.44 22.44 59.45 22.44 59.47C22.44 59.47 22.43 59.47 22.41 59.47C22.41 59.47 22.38 59.47 22.32 59.47C22.28 59.45 22.25 59.43 22.23 59.41H22.2C22.16 59.41 22.13 59.4 22.11 59.38C22.09 59.36 22.07 59.35 22.05 59.35C22.05 59.35 22.05 59.36 22.05 59.38C22.05 59.38 22.04 59.38 22.02 59.38C22 59.38 21.98 59.37 21.96 59.35C21.92 59.35 21.85 59.34 21.75 59.32C21.67 59.28 21.62 59.25 21.6 59.23C21.54 59.25 21.48 59.23 21.42 59.17C21.38 59.13 21.36 59.12 21.36 59.14L21.15 59.05C21.15 59.03 21.14 59.02 21.12 59.02C21.12 59 21.12 58.99 21.12 58.99H21.06C21.02 58.95 20.99 58.93 20.97 58.93C20.95 58.87 20.93 58.83 20.91 58.81C20.89 58.79 20.86 58.76 20.82 58.72C20.82 58.64 20.81 58.6 20.79 58.6C20.79 58.56 20.76 58.5 20.7 58.42C20.66 58.32 20.64 58.23 20.64 58.15L20.61 58.12C20.53 58.04 20.51 57.9 20.55 57.7C20.57 57.6 20.56 57.56 20.52 57.58C20.48 57.58 20.49 57.52 20.55 57.4L20.7 57.1C20.7 57.08 20.69 57.07 20.67 57.07C20.65 57.05 20.65 57.03 20.67 57.01C20.67 56.99 20.67 56.98 20.67 56.98C20.69 56.96 20.7 56.94 20.7 56.92C20.72 56.9 20.73 56.86 20.73 56.8C20.73 56.76 20.74 56.73 20.76 56.71C20.76 56.69 20.78 56.65 20.82 56.59C20.88 56.51 20.92 56.46 20.94 56.44L21.12 56.23C21.14 56.21 21.17 56.19 21.21 56.17C21.25 56.15 21.28 56.12 21.3 56.08C21.34 56.04 21.38 56.02 21.42 56.02C21.48 56 21.52 55.97 21.54 55.93C21.6 55.83 21.67 55.78 21.75 55.78H21.81C21.89 55.78 21.93 55.8 21.93 55.84C21.93 55.94 21.87 56.02 21.75 56.08C21.67 56.16 21.63 56.2 21.63 56.2C21.63 56.18 21.6 56.2 21.54 56.26C21.54 56.28 21.52 56.29 21.48 56.29C21.46 56.29 21.45 56.31 21.45 56.35C21.43 56.35 21.43 56.36 21.45 56.38C21.47 56.4 21.47 56.43 21.45 56.47C21.45 56.55 21.45 56.59 21.45 56.59C21.43 56.61 21.43 56.64 21.45 56.68C21.47 56.7 21.47 56.73 21.45 56.77C21.43 56.77 21.41 56.78 21.39 56.8L21.36 57.22C21.36 57.22 21.37 57.28 21.39 57.4C21.41 57.5 21.41 57.56 21.39 57.58V57.73C21.39 57.79 21.48 57.85 21.66 57.91C21.68 57.93 21.7 57.94 21.72 57.94C21.76 57.92 21.79 57.92 21.81 57.94C22.07 58.02 22.24 58.08 22.32 58.12C22.4 58.14 22.58 58.15 22.86 58.15H23.1C23.2 58.15 23.29 58.14 23.37 58.12C23.39 58.12 23.39 58.13 23.37 58.15C23.37 58.15 23.38 58.15 23.4 58.15L23.76 58.09C23.78 58.07 23.8 58.06 23.82 58.06C23.84 58.04 23.86 58.04 23.88 58.06C23.9 58.06 23.92 58.06 23.94 58.06L24.6 57.88C24.72 57.84 24.83 57.8 24.93 57.76C25.05 57.7 25.17 57.66 25.29 57.64C25.47 57.6 25.66 57.53 25.86 57.43C26.06 57.31 26.26 57.21 26.46 57.13C26.46 57.11 26.55 57.05 26.73 56.95C26.93 56.85 27.14 56.74 27.36 56.62L27.45 56.32C27.49 56.22 27.55 56.17 27.63 56.17C27.71 56.15 27.77 56.11 27.81 56.05C27.75 56.01 27.7 55.98 27.66 55.96C27.62 55.94 27.62 55.89 27.66 55.81V55.78L27.81 55.3C27.89 55.06 27.93 54.83 27.93 54.61C27.93 54.11 27.74 53.75 27.36 53.53C26.98 53.31 26.53 53.2 26.01 53.2C25.93 53.2 25.84 53.2 25.74 53.2C25.66 53.2 25.57 53.21 25.47 53.23C25.29 53.25 25.11 53.28 24.93 53.32C24.75 53.36 24.56 53.4 24.36 53.44H24.3C24.22 53.44 24.15 53.46 24.09 53.5C24.03 53.52 23.97 53.55 23.91 53.59C23.63 53.67 23.32 53.78 22.98 53.92C22.8 53.96 22.67 54.02 22.59 54.1C22.51 54.14 22.46 54.16 22.44 54.16V54.19C22.32 54.23 22.22 54.25 22.14 54.25C22.1 54.25 22.05 54.25 21.99 54.25C21.93 54.23 21.87 54.22 21.81 54.22C21.85 54.24 21.88 54.25 21.9 54.25C21.92 54.25 21.94 54.26 21.96 54.28C21.98 54.34 21.96 54.38 21.9 54.4C21.86 54.42 21.83 54.45 21.81 54.49H21.78C21.76 54.51 21.72 54.53 21.66 54.55C21.62 54.57 21.58 54.6 21.54 54.64C21.36 54.66 21.2 54.72 21.06 54.82C20.94 54.92 20.83 55.03 20.73 55.15H20.7L20.01 55.63C19.85 55.71 19.71 55.81 19.59 55.93C19.33 56.13 19.07 56.34 18.81 56.56C18.55 56.78 18.29 57 18.03 57.22H17.97C17.87 57.22 17.81 57.25 17.79 57.31C17.79 57.35 17.77 57.42 17.73 57.52H17.7C17.64 57.6 17.57 57.67 17.49 57.73C17.41 57.75 17.36 57.79 17.34 57.85C17.32 57.91 17.28 57.97 17.22 58.03L17.01 58.24C16.93 58.22 16.84 58.19 16.74 58.15C16.66 58.09 16.57 58.06 16.47 58.06C16.47 58.06 16.46 58.07 16.44 58.09C16.44 58.09 16.44 58.11 16.44 58.15C16.56 58.17 16.66 58.22 16.74 58.3C16.82 58.38 16.81 58.47 16.71 58.57L16.65 58.63C16.57 58.71 16.47 58.74 16.35 58.72C16.25 58.7 16.16 58.74 16.08 58.84C16.12 58.86 16.17 58.87 16.23 58.87C16.29 58.87 16.32 58.92 16.32 59.02C16.22 59.14 16.12 59.26 16.02 59.38C15.94 59.5 15.85 59.62 15.75 59.74C15.67 59.82 15.6 59.91 15.54 60.01C15.48 60.09 15.4 60.16 15.3 60.22C15.28 60.24 15.27 60.27 15.27 60.31C15.29 60.33 15.29 60.35 15.27 60.37V60.4L14.82 61.12C14.72 61.18 14.64 61.24 14.58 61.3C14.52 61.36 14.49 61.45 14.49 61.57C14.57 61.49 14.61 61.46 14.61 61.48V61.51C14.61 61.55 14.59 61.59 14.55 61.63C14.51 61.65 14.48 61.68 14.46 61.72L14.31 62.08C14.11 62.54 13.97 62.95 13.89 63.31C13.77 63.69 13.71 64.05 13.71 64.39C13.69 64.47 13.65 64.55 13.59 64.63C13.55 64.69 13.56 64.76 13.62 64.84C13.66 64.88 13.69 64.91 13.71 64.93C13.73 64.93 13.74 64.97 13.74 65.05C13.74 65.15 13.75 65.22 13.77 65.26V65.35C13.77 65.41 13.75 65.47 13.71 65.53C13.67 65.59 13.66 65.65 13.68 65.71C13.7 65.73 13.74 65.74 13.8 65.74C13.86 65.72 13.9 65.73 13.92 65.77L14.1 66.1C14.16 66.14 14.2 66.2 14.22 66.28C14.24 66.36 14.26 66.42 14.28 66.46C14.32 66.5 14.37 66.54 14.43 66.58C14.49 66.6 14.53 66.64 14.55 66.7C14.55 66.72 14.54 66.74 14.52 66.76C14.52 66.76 14.52 66.78 14.52 66.82C14.62 66.78 14.63 66.7 14.55 66.58C14.67 66.66 14.67 66.74 14.55 66.82C14.59 66.82 14.63 66.82 14.67 66.82C14.71 66.8 14.75 66.79 14.79 66.79C14.87 66.79 14.95 66.82 15.03 66.88C15.35 67.04 15.71 67.15 16.11 67.21C16.53 67.29 16.98 67.33 17.46 67.33C18 67.33 18.58 67.28 19.2 67.18C19.82 67.1 20.44 66.99 21.06 66.85V66.82C21.1 66.82 21.13 66.83 21.15 66.85C21.17 66.85 21.19 66.85 21.21 66.85C21.31 66.85 21.4 66.81 21.48 66.73L21.81 66.64C21.97 66.54 22.12 66.46 22.26 66.4C22.4 66.34 22.55 66.33 22.71 66.37C22.75 66.39 22.75 66.41 22.71 66.43C22.69 66.43 22.68 66.45 22.68 66.49C22.72 66.47 22.75 66.44 22.77 66.4C22.79 66.36 22.82 66.33 22.86 66.31L23.04 66.25C23.18 66.23 23.3 66.2 23.4 66.16C23.5 66.1 23.61 66.05 23.73 66.01L24.06 65.89C24.1 65.91 24.14 65.92 24.18 65.92C24.26 65.92 24.32 65.9 24.36 65.86C24.4 65.8 24.46 65.74 24.54 65.68C24.56 65.68 24.61 65.66 24.69 65.62C24.79 65.58 24.9 65.55 25.02 65.53C25.14 65.49 25.24 65.43 25.32 65.35H25.35C25.65 65.21 25.94 65.07 26.22 64.93C26.5 64.79 26.77 64.65 27.03 64.51L27.84 64.06C27.94 63.98 28.02 63.91 28.08 63.85C28.14 63.79 28.22 63.76 28.32 63.76L28.35 63.73C28.49 63.59 28.64 63.48 28.8 63.4C28.96 63.3 29.09 63.2 29.19 63.1C29.35 62.96 29.47 62.89 29.55 62.89C29.61 62.89 29.64 62.93 29.64 63.01C29.64 63.11 29.58 63.22 29.46 63.34C29.28 63.5 29.08 63.68 28.86 63.88C28.64 64.08 28.39 64.29 28.11 64.51C28.01 64.59 27.9 64.64 27.78 64.66C27.68 64.68 27.61 64.75 27.57 64.87C27.45 64.95 27.32 65.03 27.18 65.11C27.06 65.19 26.92 65.27 26.76 65.35C26.58 65.45 26.39 65.55 26.19 65.65C26.01 65.75 25.81 65.85 25.59 65.95C25.53 65.95 25.46 65.95 25.38 65.95C25.32 65.93 25.26 65.92 25.2 65.92C25.06 65.92 24.96 65.95 24.9 66.01C24.9 66.01 24.9 66.02 24.9 66.04C24.9 66.04 24.91 66.06 24.93 66.1C24.97 66.1 25.01 66.1 25.05 66.1C25.09 66.08 25.13 66.08 25.17 66.1C25.17 66.1 25.17 66.11 25.17 66.13C25.17 66.15 25.15 66.16 25.11 66.16C25.03 66.2 24.97 66.22 24.93 66.22V66.25L24.72 66.34H24.69C24.61 66.42 24.55 66.4 24.51 66.28C24.45 66.3 24.39 66.34 24.33 66.4C24.29 66.46 24.24 66.51 24.18 66.55L23.97 66.64C23.89 66.66 23.81 66.68 23.73 66.7C23.65 66.7 23.59 66.73 23.55 66.79H23.52C23.44 66.83 23.34 66.87 23.22 66.91C23.12 66.93 23.02 66.96 22.92 67V67.03H22.77C22.67 67.03 22.56 67.02 22.44 67C22.32 66.96 22.2 66.94 22.08 66.94C22.12 67 22.19 67.03 22.29 67.03C22.39 67.05 22.42 67.1 22.38 67.18C22.38 67.2 22.37 67.21 22.35 67.21L21.57 67.42V67.45C21.49 67.47 21.4 67.48 21.3 67.48C21.22 67.5 21.14 67.53 21.06 67.57C20.28 67.77 19.51 67.91 18.75 67.99C17.99 68.07 17.28 68.11 16.62 68.11H16.59ZM23.04 59.17C23.06 59.15 23.1 59.14 23.16 59.14C23.24 59.12 23.3 59.1 23.34 59.08L24 59.02C24.02 59.02 24.04 59.01 24.06 58.99C24.08 58.97 24.1 58.96 24.12 58.96C24.14 58.94 24.17 58.93 24.21 58.93C24.31 58.85 24.36 58.84 24.36 58.9C24.36 58.94 24.4 58.93 24.48 58.87C24.5 58.85 24.53 58.84 24.57 58.84C24.61 58.8 24.64 58.78 24.66 58.78C24.7 58.76 24.73 58.74 24.75 58.72C24.79 58.7 24.81 58.69 24.81 58.69C24.81 58.67 24.83 58.66 24.87 58.66H24.9C24.94 58.66 25.01 58.63 25.11 58.57C25.21 58.51 25.26 58.48 25.26 58.48C25.28 58.48 25.3 58.46 25.32 58.42C25.36 58.38 25.39 58.36 25.41 58.36C25.43 58.34 25.46 58.33 25.5 58.33C25.54 58.31 25.56 58.29 25.56 58.27C25.6 58.25 25.64 58.23 25.68 58.21C25.72 58.19 25.75 58.18 25.77 58.18C25.79 58.16 25.83 58.13 25.89 58.09C25.97 58.05 26.01 58.02 26.01 58C26.05 57.96 26.09 57.93 26.13 57.91C26.19 57.89 26.23 57.87 26.25 57.85C26.31 57.83 26.45 57.73 26.67 57.55C26.89 57.35 27.08 57.12 27.24 56.86C27.28 56.82 27.19 56.87 26.97 57.01C26.77 57.13 26.66 57.2 26.64 57.22C26.62 57.22 26.58 57.25 26.52 57.31C26.46 57.35 26.42 57.37 26.4 57.37L26.34 57.43H26.25L26.22 57.46C26.22 57.46 26.18 57.48 26.1 57.52C26.08 57.52 26.04 57.54 25.98 57.58C25.92 57.62 25.88 57.64 25.86 57.64C25.84 57.64 25.82 57.65 25.8 57.67C25.78 57.67 25.76 57.67 25.74 57.67C25.66 57.73 25.54 57.79 25.38 57.85C25.24 57.91 25.14 57.94 25.08 57.94H25.05C25.01 57.94 24.97 57.96 24.93 58L24.9 58.03L24.75 58.06C24.71 58.08 24.66 58.1 24.6 58.12C24.54 58.14 24.49 58.15 24.45 58.15C24.43 58.17 24.42 58.18 24.42 58.18C24.42 58.16 24.42 58.15 24.42 58.15C24.38 58.19 24.33 58.21 24.27 58.21C24.25 58.21 24.24 58.21 24.24 58.21C24.24 58.19 24.23 58.18 24.21 58.18C24.19 58.18 24.15 58.21 24.09 58.27H23.94C23.94 58.29 23.92 58.3 23.88 58.3H23.85C23.83 58.3 23.8 58.31 23.76 58.33C23.72 58.35 23.69 58.36 23.67 58.36C23.65 58.36 23.64 58.37 23.64 58.39C23.64 58.39 23.63 58.39 23.61 58.39C23.61 58.37 23.6 58.36 23.58 58.36H23.55L23.37 58.42H23.28C23.22 58.42 23.15 58.41 23.07 58.39C23.01 58.37 22.94 58.37 22.86 58.39C22.84 58.39 22.83 58.4 22.83 58.42C22.83 58.42 22.82 58.42 22.8 58.42H22.74C22.74 58.42 22.73 58.42 22.71 58.42C22.71 58.42 22.7 58.43 22.68 58.45C22.68 58.43 22.67 58.42 22.65 58.42H22.47C22.47 58.4 22.46 58.39 22.44 58.39C22.42 58.39 22.4 58.4 22.38 58.42C22.36 58.42 22.34 58.42 22.32 58.42C22.2 58.42 22.11 58.38 22.05 58.3C21.99 58.22 21.88 58.2 21.72 58.24C21.72 58.22 21.71 58.21 21.69 58.21C21.67 58.19 21.66 58.17 21.66 58.15H21.63C21.59 58.19 21.57 58.22 21.57 58.24C21.55 58.26 21.55 58.29 21.57 58.33C21.61 58.35 21.62 58.38 21.6 58.42C21.62 58.44 21.63 58.47 21.63 58.51C21.65 58.53 21.67 58.54 21.69 58.54C21.69 58.6 21.72 58.66 21.78 58.72C21.78 58.74 21.79 58.76 21.81 58.78C21.85 58.8 21.86 58.81 21.84 58.81C21.86 58.83 21.88 58.84 21.9 58.84C21.92 58.84 21.93 58.86 21.93 58.9L22.02 58.99H22.05C22.23 59.07 22.41 59.13 22.59 59.17C22.79 59.19 22.94 59.19 23.04 59.17Z" fill="#A911E5"/>
<path d="M8 44C13.9362 37.059 61.7553 37.72 70 43.6695" stroke="#A911E5"/>
<path d="M80.5609 64.4539C82.3644 51.9593 78.5255 49.4711 70.6404 46V53.2497C70.6404 53.2497 76.4007 55.2269 74.8006 61.4881C73.2005 67.7492 66.8002 67.4197 66.8002 67.4197L62 74.9989C62 74.9989 77.0407 75.3285 80.5609 64.4539Z" stroke="#A911E5"/>
<path d="M48.1935 37.542C48.1913 37.798 48.0409 37.9247 47.7422 37.9221C47.5289 37.9203 47.2735 37.8541 46.9759 37.7235C46.2535 37.376 45.2331 36.9618 43.9145 36.4812C42.5959 36.0005 41.4702 35.4148 40.5374 34.7241L34.9911 32.1803C34.9911 32.1803 34.9694 32.2228 34.926 32.3078C34.8399 32.3924 34.7542 32.4343 34.6689 32.4336C34.4961 32.6881 34.259 32.9634 33.9578 33.2595C33.6143 33.5126 33.2728 33.531 32.9333 33.3147C32.8487 33.2286 32.8066 33.1643 32.8069 33.1216C32.8073 33.0789 32.8075 33.0576 32.8075 33.0576L32.6795 33.0565C32.5088 33.055 32.4027 32.9901 32.3611 32.8618C32.3199 32.6907 32.2569 32.5835 32.1719 32.5401C31.5753 32.4497 31.1316 31.9552 30.8406 31.0566C30.55 30.1154 30.4078 29.2822 30.4141 28.5569C30.4203 27.8316 30.5301 27.4698 30.7434 27.4717C30.8714 27.4728 31.0196 27.602 31.1881 27.8595C31.2727 27.9456 31.4628 28.1605 31.7586 28.5044C32.0547 28.8056 32.4149 29.0861 32.8394 29.3457L33.6035 29.8003L34.1756 30.2533C35.407 30.9465 36.4476 31.5102 37.2972 31.9441C38.1468 32.3781 39.2304 32.8995 40.5479 33.5081C40.8028 33.6383 41.0156 33.7042 41.1862 33.7056C41.3995 33.7075 41.5069 33.623 41.5084 33.4524C41.5091 33.367 41.4885 33.2815 41.4466 33.1958C41.3624 33.0671 41.2995 32.9386 41.2579 32.8102C41.0475 32.467 40.8579 32.1881 40.6891 31.9733C40.478 31.7155 40.267 31.4363 40.0563 31.1358C39.9294 31.0067 39.9303 30.9001 40.059 30.8158C40.1451 30.7312 40.2731 30.7323 40.443 30.8191C40.7828 30.9927 40.9951 31.1225 41.0797 31.2086C41.122 31.2516 41.1641 31.316 41.206 31.4017C41.2479 31.4874 41.4383 31.681 41.777 31.9826L42.2868 32.243C42.3714 32.3291 42.5412 32.4372 42.7961 32.5674C43.0087 32.6546 43.1363 32.6983 43.1789 32.6987C43.2643 32.6994 43.3066 32.7425 43.3058 32.8278C43.2624 32.9128 43.3253 33.0413 43.4945 33.2134C43.5368 33.2565 43.622 33.2785 43.75 33.2796C43.8783 33.2381 43.9848 33.2603 44.0694 33.3464C44.197 33.3901 44.3032 33.4551 44.3878 33.5411C44.4297 33.6268 44.472 33.6698 44.5146 33.6702C44.6849 33.7143 44.7909 33.8006 44.8324 33.929C44.8317 34.0143 44.8736 34.1 44.9582 34.186C44.9579 34.2287 45.0003 34.2504 45.0857 34.2511C45.427 34.2541 45.576 34.298 45.5326 34.383C45.4892 34.4679 45.5311 34.5536 45.6584 34.6401C45.8283 34.7269 45.9127 34.8343 45.9116 34.9623C45.9947 35.219 46.0578 35.3262 46.1008 35.2839C46.1439 35.2416 46.1871 35.178 46.2305 35.093C46.2312 35.0077 46.2947 35.0722 46.4208 35.2867C46.4624 35.415 46.5895 35.5228 46.8021 35.6099C46.972 35.6967 47.0993 35.7832 47.1839 35.8692C47.2685 35.9553 47.3315 36.0625 47.3731 36.1909C47.4147 36.3192 47.4991 36.4266 47.6263 36.5131C48.007 36.9003 48.1961 37.2433 48.1935 37.542ZM46.8834 26.1383C46.8812 26.3943 46.7941 26.6069 46.622 26.7761L46.6214 26.8401C46.6181 27.224 46.4469 27.2866 46.1078 27.0277C45.8522 26.9828 45.6609 26.8958 45.534 26.7667C45.3644 26.6373 45.1951 26.4865 45.0259 26.3143C45.0262 26.2717 45.0264 26.2503 45.0264 26.2503C44.9838 26.25 44.9624 26.2498 44.9624 26.2498C44.6649 26.1192 44.4317 25.9465 44.2628 25.7318L43.8811 25.4725C43.7119 25.3003 43.4573 25.1275 43.1175 24.9539C42.9056 24.7814 42.7572 24.6734 42.6723 24.6301C42.5446 24.5863 42.332 24.4991 42.0345 24.3686C41.9491 24.3678 41.8217 24.3027 41.6521 24.1733C41.4826 24.0438 41.3766 23.9576 41.3343 23.9145L40.3777 23.5223C40.1647 23.4778 39.9946 23.4123 39.8674 23.3259C39.7401 23.2395 39.57 23.174 39.357 23.1295L38.4004 22.7373C38.1024 22.6494 37.89 22.5409 37.7631 22.4118L37.7637 22.3478C37.6353 22.3894 37.465 22.3452 37.2528 22.2154C36.9549 22.1275 36.6994 22.0613 36.4865 22.0168C36.2312 21.9293 36.1036 21.8855 36.1036 21.8855L34.9533 21.6836C34.1849 21.7197 33.7982 22.0364 33.7931 22.6337C33.7912 22.847 33.8529 23.1249 33.9779 23.4673C34.185 24.1944 34.6264 24.9663 35.3021 25.7828C35.3444 25.8258 35.4078 25.8904 35.4924 25.9764C35.5774 26.0198 35.6622 26.0845 35.7468 26.1706C35.7891 26.2136 35.81 26.2565 35.8097 26.2992C35.767 26.2988 35.788 26.3416 35.8726 26.4277C35.9149 26.4707 35.9787 26.4926 36.064 26.4933C36.1067 26.4937 36.1491 26.5154 36.1914 26.5584C36.2337 26.6015 36.2759 26.6658 36.3178 26.7515C36.3174 26.7942 36.3595 26.8586 36.4441 26.9446C36.4438 26.9873 36.4861 27.0303 36.571 27.0737C36.6137 27.0741 36.6562 27.0958 36.6985 27.1388C36.8677 27.3109 37.0792 27.5261 37.333 27.7843C37.5441 28.0421 37.755 28.3213 37.9658 28.6218L38.1556 28.8794C38.1979 28.9224 38.2827 28.9872 38.4099 29.0736C38.4949 29.117 38.5797 29.1817 38.6643 29.2678C38.8335 29.4399 39.0242 29.5909 39.2364 29.7207C39.4486 29.8505 39.5751 30.0223 39.616 30.236L39.6149 30.364C39.613 30.5773 39.421 30.5757 39.0389 30.359C38.9539 30.3156 38.8055 30.2077 38.5937 30.0352C38.3822 29.8201 38.2553 29.691 38.213 29.6479L37.9592 29.3897C37.8746 29.3037 37.811 29.2605 37.7683 29.2601C37.7256 29.2597 37.6831 29.238 37.6408 29.195L37.0704 28.5501L36.7526 28.2913L36.4364 27.8406L35.2315 26.5502C35.1469 26.4641 34.9987 26.3349 34.7868 26.1624C34.5753 25.9472 34.4486 25.7968 34.4067 25.7111C34.1952 25.4959 34.0265 25.2598 33.9007 25.0027C33.7323 24.7452 33.5425 24.4876 33.3313 24.2298C33.1625 24.015 33.0152 23.779 32.8894 23.522C32.7202 23.3498 32.6147 23.2209 32.5727 23.1352C32.3627 22.7494 32.2365 22.535 32.1942 22.4919C32.1519 22.4489 32.0892 22.299 32.0061 22.0423C31.8814 21.6572 31.8212 21.2087 31.8256 20.6967C31.8286 20.3554 31.8517 20.1423 31.8951 20.0573C31.9823 19.8447 32.0695 19.6321 32.1566 19.4195C32.2438 19.2069 32.458 19.1021 32.7994 19.105C33.0127 19.1069 33.1409 19.0866 33.1839 19.0443C33.1843 19.0017 33.3123 19.0028 33.5679 19.0476C33.7385 19.0491 34.0157 19.0728 34.3993 19.1188C34.7833 19.1221 35.0816 19.1673 35.2942 19.2545C35.5071 19.299 35.8049 19.4082 36.1874 19.5821C36.5276 19.7131 36.8253 19.8223 37.0806 19.9098L37.5909 20.1062L38.6099 20.691C38.6522 20.734 38.7576 20.8843 38.9261 21.1417C39.0519 21.3988 39.1571 21.5704 39.2417 21.6565C39.284 21.6995 39.3699 21.6362 39.4993 21.4667C39.6288 21.2971 39.8419 21.3203 40.1387 21.5362C40.3087 21.623 40.4144 21.7305 40.456 21.8589C40.4549 21.9869 40.5604 22.1158 40.7727 22.2456C41.4936 22.7639 42.0021 23.1736 42.2982 23.4748L43.2521 24.187L43.4424 24.3807C43.4439 24.21 43.5518 24.0616 43.7663 23.9354C43.8946 23.8939 44.002 23.8094 44.0884 23.6822C44.1749 23.5549 44.3461 23.4924 44.6021 23.4946C44.9007 23.4972 45.3259 23.6715 45.8776 24.0176C46.4293 24.3637 46.7032 24.7714 46.6992 25.2407C46.6977 25.4113 46.7391 25.561 46.8233 25.6898C46.8649 25.8181 46.8849 25.9676 46.8834 26.1383ZM48.5673 8.93612C48.5644 9.27744 48.541 9.51191 48.4973 9.63954C48.4083 10.0655 48.277 10.4483 48.1034 10.7882C47.9302 11.0854 47.608 11.3386 47.1368 11.5479C46.9228 11.6314 46.6445 11.7357 46.3021 11.8608C45.9597 11.9858 45.6388 12.0897 45.3394 12.1725C45.1257 12.2133 44.8695 12.2325 44.5709 12.2299C44.4002 12.2284 44.272 12.2487 44.1863 12.2906C44.0583 12.2895 43.909 12.2882 43.7383 12.2868C43.5677 12.2853 43.3755 12.305 43.1618 12.3458C42.9481 12.3866 42.7561 12.385 42.5858 12.3409L41.3699 12.3304C41.1566 12.3286 40.9646 12.3269 40.7939 12.3255C40.5806 12.3236 40.4314 12.301 40.3465 12.2576C39.9632 12.169 39.7716 12.1247 39.7716 12.1247C39.7289 12.1243 39.5158 12.1011 39.1322 12.0552C38.6205 12.0081 38.0872 12.0035 37.5322 12.0414C36.9776 12.0367 36.5298 12.0115 36.1888 11.9659C34.91 11.8269 34.268 12.056 34.2628 12.6534C34.2606 12.9093 34.3644 13.2516 34.574 13.6801C34.659 13.7235 34.7223 13.8093 34.7638 13.9377C34.7627 14.0657 34.8254 14.2156 34.952 14.3873L35.1418 14.645C35.1844 14.6453 35.2052 14.7095 35.2041 14.8375C35.1607 14.9225 35.1819 14.944 35.2676 14.9021C35.6089 14.905 35.6933 15.0124 35.5208 15.2243L36.0273 15.8686L36.2816 16.0628L36.3451 16.1274C36.5143 16.2995 36.5983 16.4496 36.5972 16.5776L36.787 16.8352C36.8297 16.8356 36.9146 16.879 37.0419 16.9654C37.1269 17.0088 37.1475 17.0943 37.1037 17.2219L37.4209 17.5447C37.6755 17.7175 37.8235 17.8681 37.8651 17.9965C37.907 18.0822 37.9487 18.1892 37.9903 18.3176L38.6253 18.8991L38.6871 19.1556C38.8578 19.1571 39.1121 19.3513 39.4502 19.7382C39.7885 20.0824 40.0214 20.2978 40.1486 20.3842C40.2755 20.5133 40.3384 20.6419 40.3373 20.7698C40.3366 20.8552 40.2936 20.8975 40.2082 20.8967C40.0376 20.8953 39.8676 20.8085 39.6985 20.6364C39.5293 20.4642 39.2115 20.2055 38.7451 19.8601C38.2791 19.4721 38.0462 19.2568 38.0466 19.2141C37.8351 18.999 37.6231 18.8478 37.4105 18.7606C37.1979 18.6735 37.0072 18.5225 36.8384 18.3077C36.9237 18.3084 36.9667 18.2661 36.9675 18.1808C36.9682 18.0955 36.8623 18.0092 36.6497 17.9221C36.3948 17.7919 36.2888 17.7056 36.3319 17.6633L35.3818 16.5031C35.3388 16.5454 35.2544 16.438 35.1286 16.1809C35.0447 16.0095 35.003 15.9025 35.0033 15.8598C35.0037 15.8172 34.8766 15.7094 34.6221 15.5366L34.3059 15.0858C34.221 15.0424 34.2213 14.9998 34.307 14.9578C34.3927 14.9159 34.436 14.8523 34.4367 14.7669L33.9898 14.6351C33.8199 14.5483 33.6932 14.3979 33.6097 14.1838C33.5262 13.9697 33.4213 13.7555 33.2952 13.5411C33.0837 13.3259 32.8935 13.1109 32.7247 12.8962C32.5559 12.6814 32.4933 12.5101 32.5371 12.3825L32.5393 12.1265C32.3307 11.5701 32.2283 11.0785 32.232 10.6518C32.2378 9.96919 32.4984 9.43808 33.0137 9.05849C33.2285 8.88966 33.464 8.78502 33.7204 8.74455C33.7634 8.70225 33.8274 8.7028 33.9124 8.7462C33.9551 8.74657 34.0192 8.72579 34.1049 8.68385C34.1906 8.64192 34.298 8.55751 34.4271 8.43061C34.5136 8.30335 34.6208 8.24027 34.7488 8.24137L34.8768 8.24247C35.0048 8.24357 35.1533 8.33018 35.3225 8.50231C35.495 8.29045 35.6024 8.20604 35.6447 8.24907C35.6444 8.29173 35.708 8.33495 35.8356 8.37871L36.731 8.45041C37.0293 8.49564 37.2633 8.58299 37.4328 8.71245C37.5601 8.79888 37.794 8.88622 38.1346 8.97449C38.392 8.80603 38.5414 8.80731 38.5826 8.97833C38.6252 8.9787 38.6462 9.02155 38.6455 9.10688L38.9009 9.17308C39.0723 9.08921 39.158 9.04728 39.158 9.04728L39.5403 9.24257C39.5403 9.24257 39.5409 9.17858 39.542 9.05058C39.6266 9.13664 39.7965 9.22344 40.0518 9.31097C40.2647 9.35547 40.435 9.3996 40.5627 9.44336C40.7756 9.48786 40.8815 9.57411 40.8804 9.7021C40.8793 9.8301 40.9856 9.87368 41.1993 9.83285C41.2424 9.79055 41.3919 9.7705 41.6479 9.7727C41.8612 9.77453 41.9675 9.81812 41.9668 9.90345L42.7336 10.038C42.7763 10.0384 42.819 10.0388 42.8616 10.0391C42.9047 9.99684 42.9475 9.97587 42.9902 9.97624C43.2035 9.97807 43.4164 10.0226 43.629 10.1097C43.7993 10.1539 43.9908 10.2195 44.2034 10.3067C44.4163 10.3512 44.6506 10.3959 44.9062 10.4407C45.1196 10.4426 45.3329 10.4444 45.5462 10.4462C45.7169 10.4477 45.9089 10.4493 46.1222 10.4512C46.2932 10.41 46.4643 10.3688 46.6353 10.3276C46.6783 10.2853 46.8069 10.2224 47.0209 10.1389C47.2353 10.0127 47.3639 9.94982 47.4066 9.95018C47.4926 9.86559 47.5358 9.80196 47.5362 9.75929C47.5796 9.67433 47.602 9.54651 47.6035 9.37586C47.5627 9.16216 47.5853 9.01302 47.6713 8.92842C47.7173 8.5448 47.5295 8.0525 47.108 7.45153C46.6442 6.80752 46.1372 6.22714 45.5869 5.71039C45.46 5.5813 45.3971 5.45275 45.3982 5.32476C45.3993 5.19676 45.464 5.11198 45.5924 5.07042C45.7208 5.02885 45.8911 5.07298 46.1033 5.20281C47.0784 5.93655 47.7338 6.62487 48.0696 7.26778C48.4058 7.86802 48.5717 8.42414 48.5673 8.93612Z" fill="#A911E5"/>
</svg>
